<?xml version="1.0" standalone="no"?>
<!DOCTYPE svg PUBLIC "-//W3C//DTD SVG 1.1//EN" "http://www.w3.org/Graphics/SVG/1.1/DTD/svg11.dtd" >
<svg xmlns="http://www.w3.org/2000/svg">
<metadata></metadata>
<defs>
<font id="open_baskerville_0.0.75normal" horiz-adv-x="1474" >
<font-face units-per-em="2048" ascent="1638" descent="-410" />
<missing-glyph horiz-adv-x="561" />
<glyph horiz-adv-x="2048" />
<glyph horiz-adv-x="2048" />
<glyph unicode="&#xd;" horiz-adv-x="681" />
<glyph unicode=" "  horiz-adv-x="561" />
<glyph unicode="&#x09;" horiz-adv-x="561" />
<glyph unicode="&#xa0;" horiz-adv-x="561" />
<glyph unicode="!" horiz-adv-x="479" d="M133 78q0 -45 31 -76t76 -31t75.5 31t30.5 76t-30.5 76.5t-75.5 31.5t-76 -31.5t-31 -76.5zM135 1251l94 -1003h21l94 1003q12 133 -104 133q-61 0 -86 -38.5t-19 -94.5z" />
<glyph unicode="&#x22;" horiz-adv-x="589" d="M59 1200q0 -53 22.5 -156.5t24.5 -154.5q4 -29 25 -29t23 29q4 49 28.5 152.5t24.5 158.5q0 20 -22.5 42t-51.5 22q-23 0 -48.5 -21.5t-25.5 -42.5zM352 1200q0 -53 21.5 -156.5t23.5 -154.5q4 -29 24.5 -29t22.5 29q4 49 29 152.5t25 158.5q0 20 -22.5 42t-51.5 22 q-23 0 -47.5 -21.5t-24.5 -42.5z" />
<glyph unicode="#" horiz-adv-x="1150" d="M63 385l986 14l26 82l-993 -16zM121 811l958 8l29 86l-963 -12zM236 25l96 4l194 1216l-98 -4zM653 23l99 6l196 1206l-104 -6z" />
<glyph unicode="$" horiz-adv-x="1044" d="M96 238q0 -109 138.5 -188t308.5 -79q217 0 328.5 101.5t113.5 275.5q0 119 -72.5 211t-178 150.5t-210 113t-178.5 132t-74 175.5q0 74 28 127.5t70 79t78.5 36.5t69.5 11q119 0 177.5 -40.5t58.5 -102.5q0 -145 82 -145q37 0 54 19.5t17 68.5q0 96 -115.5 163.5 t-279.5 67.5q-156 0 -268.5 -95t-112.5 -255q0 -90 37 -160.5t94 -117t128 -86t141.5 -78.5t128 -81t94.5 -105.5t37 -143.5q0 -135 -73 -212t-181 -77q-121 0 -204 62.5t-83 123.5q0 66 -14.5 101t-57.5 35q-35 0 -58.5 -22.5t-23.5 -65.5zM500 -236h57v932h-57v-932z M504 764h57v786h-57v-786z" />
<glyph unicode="%" horiz-adv-x="1228" d="M72 1036q0 -135 82 -215t198 -80q115 0 198 81t83 214t-84 214t-197 81q-115 0 -197.5 -81t-82.5 -214zM133 -10l23 -15l927 1358l-24 13zM215 1036q0 262 137 262q74 0 105.5 -62t31.5 -200q0 -135 -31.5 -198.5t-105.5 -63.5q-137 0 -137 262zM596 285q0 -135 82 -215 t199 -80q115 0 197.5 81t82.5 214t-84 214t-196 81q-115 0 -198 -81t-83 -214zM739 285q0 262 138 262q74 0 105.5 -62.5t31.5 -199.5q0 -135 -32 -198.5t-105 -63.5q-138 0 -138 262z" />
<glyph unicode="&#x26;" horiz-adv-x="1284" d="M61 342q0 -178 101.5 -274.5t275.5 -96.5q133 0 218 50.5t175 166.5q188 -217 392 -217q117 0 166 48.5t49 119.5h-15q0 -37 -42 -74.5t-87 -37.5q-94 0 -213.5 117.5t-158.5 201.5l151 305q37 76 83 115t124 39h16v26h-411v-26h16q129 0 129 -113q0 -61 -41 -147 l-88 -174l-344 467q2 2 56.5 32.5t77 49t62.5 56.5t57 85t17 104q0 131 -95 190.5t-216 59.5q-102 0 -190 -72.5t-88 -209.5q0 -139 163 -353q-131 -53 -235.5 -169.5t-104.5 -268.5zM223 414q0 106 53.5 200.5t139.5 145.5l399 -551q-61 -86 -140 -133t-151 -47 q-133 0 -217 112.5t-84 272.5zM348 1219q0 80 51.5 123.5t116.5 43.5q88 0 138.5 -57t50.5 -137q0 -104 -58.5 -205.5t-107.5 -128.5q-6 10 -40 53t-46.5 60.5t-38 56.5t-35.5 64.5t-20.5 60.5t-10.5 66z" />
<glyph unicode="'" horiz-adv-x="337" d="M80 1335q0 -59 23.5 -175t27.5 -173q0 -31 27 -31q23 0 24 31q4 57 32 173t28 175q0 23 -25.5 45.5t-56.5 22.5q-25 0 -52.5 -23.5t-27.5 -44.5z" />
<glyph unicode="(" horiz-adv-x="665" d="M0 496q0 -154 73.5 -312.5t171 -265t187.5 -174.5t131 -66v64q-49 33 -110.5 97.5t-129 160.5t-112.5 228t-45 268q0 188 41 345.5t99.5 248t116.5 154t99 87.5l41 23v67q-14 0 -72.5 -39t-142.5 -119.5t-161.5 -186t-132 -261t-54.5 -319.5z" />
<glyph unicode=")" horiz-adv-x="665" d="M0 -258q49 33 110.5 97.5t129 160.5t112.5 228t45 268q0 188 -41 345.5t-99.5 248t-116.5 154t-99 87.5l-41 23v67q14 0 72.5 -39t142.5 -119.5t161.5 -186t132 -261t54.5 -319.5q0 -154 -73.5 -312.5t-171 -265t-187.5 -174.5t-131 -66v64z" />
<glyph unicode="*" horiz-adv-x="542" d="M12 1333q0 -43 48.5 -57t109 -7t111.5 -3q-20 -20 -74.5 -50t-90.5 -59t-36 -59q0 -29 19.5 -48.5t39.5 -19.5q49 0 75 41t45.5 97.5t43.5 76.5q20 -20 37.5 -76.5t41.5 -97.5t71 -41q51 0 51 64q0 43 -27.5 69.5t-80 54t-74.5 48.5q51 10 108 3t104.5 6t47.5 58 q0 61 -58 62q-43 0 -101 -44t-101 -53q0 33 19 96.5t19 112.5q0 25 -16 40.5t-47 15.5q-61 0 -61 -56q0 -47 22.5 -111.5t22.5 -97.5q-37 8 -97.5 50.5t-107.5 42.5q-63 0 -64 -58z" />
<glyph unicode="+" horiz-adv-x="1032" d="M131 477l2 -67h342v-357h78v357h340v69h-340v357h-78v-357z" />
<glyph unicode="," horiz-adv-x="499" d="M94 -291l12 -26q102 35 180.5 135t78.5 202q0 80 -41 123t-103 43q-51 0 -84 -33.5t-33 -80.5q0 -45 32 -73t79 -28q53 0 72 29q0 -94 -59.5 -172t-133.5 -119z" />
<glyph unicode="-" horiz-adv-x="690" d="M98 395l447 -6l12 100l-459 -6v-88z" />
<glyph unicode="." horiz-adv-x="458" d="M123 78q0 -45 30.5 -76t75.5 -31t76 31t31 76t-31 76.5t-76 31.5t-75.5 -31.5t-30.5 -76.5z" />
<glyph unicode="/" horiz-adv-x="608" d="M33 -82l100 -27l449 1481l-101 29z" />
<glyph unicode="0" horiz-adv-x="1032" d="M66 674q0 -322 142 -512.5t308 -190.5t308.5 190.5t142.5 512.5q0 156 -58.5 324.5t-165 290.5t-227.5 122t-227.5 -122t-164.5 -291t-58 -324zM221 674q0 295 82 500.5t213 205.5t213 -205.5t82 -500.5q0 -291 -82 -482.5t-213 -191.5t-213 191.5t-82 482.5z" />
<glyph unicode="1" horiz-adv-x="649" d="M29 0h610v27q-121 0 -179.5 54t-58.5 191l2 1112h-30q-27 -33 -62 -55t-79 -33.5t-71.5 -17.5t-71.5 -10t-46 -4v-17q45 -6 104 -6l107 8v-977q0 -135 -51 -190t-174 -55v-27z" />
<glyph unicode="2" horiz-adv-x="1026" d="M61 0h799l84 356h-14q-2 -8 -7 -23.5t-23.5 -52t-43.5 -65.5t-69 -52.5t-95 -23.5h-463l66 49q63 51 124.5 100.5t145.5 122t140 128.5q113 113 175 251t62 234q0 51 -17.5 109.5t-58.5 125t-131 109.5t-215 43q-109 0 -190.5 -34t-124.5 -90t-64.5 -114.5t-21.5 -119.5 q0 -119 73.5 -194t159.5 -75q111 0 148 56q-68 0 -126.5 19.5t-107.5 83t-49 163.5q0 76 29.5 133t75 86t88.5 42t79 13q41 0 83 -11t92.5 -41t81 -95.5t30.5 -159.5q0 -268 -352 -688q-57 -68 -147.5 -159t-153.5 -148l-62 -58v-20z" />
<glyph unicode="3" horiz-adv-x="1009" d="M51 258q0 -92 48 -154.5t122 -88t127 -35t98 -9.5q231 0 356.5 118t125.5 298q0 254 -310 354q131 31 206 116t75 208q0 47 -20.5 102.5t-62.5 112.5t-124 94t-190 37q-154 0 -245 -75.5t-91 -168.5q0 -59 43 -109t119 -50q63 0 84 22q-131 37 -131 174q0 61 46 118.5 t154 57.5q260 0 260 -315q0 -82 -21.5 -144.5t-49 -94t-62.5 -51t-56.5 -23.5t-33.5 -4q-31 0 -62.5 14t-60.5 14q-86 0 -86 -71q0 -35 24.5 -52.5t53.5 -17.5q31 0 78 36t88 36q80 0 148.5 -94.5t68.5 -239.5q0 -160 -87 -264.5t-237 -104.5q-133 0 -199.5 69.5 t-66.5 184.5q0 127 105 199q-29 4 -41 4q-84 0 -138.5 -58.5t-54.5 -144.5z" />
<glyph unicode="4" horiz-adv-x="956" d="M0 332h553v-60q0 -141 -37 -193t-156 -52v-27h506v27q-119 0 -148.5 47t-29.5 198v60h33q86 0 116.5 -30t30.5 -120v-24h27v403h-27v-24q0 -90 -38.5 -127t-124.5 -37h-17v1042h-35l-653 -1061v-22zM47 373l506 823v-823h-506z" />
<glyph unicode="5" horiz-adv-x="897" d="M-55 225q0 -74 43 -128t108.5 -78.5t119.5 -36t97 -11.5q184 0 343 148.5t159 367.5q0 166 -112.5 270.5t-260.5 104.5q-135 0 -200 -78l108 482q78 -27 225 -27q104 0 160 44t56 116q0 18 -3 22q-27 -43 -159 -43q-217 0 -275 31l-182 -764l35 -14q66 199 215 198 q80 0 132 -59t69.5 -132t17.5 -155q0 -172 -93 -325.5t-243 -153.5q-94 0 -143 44t-49 108q0 111 -13.5 144.5t-70.5 33.5q-43 0 -63.5 -34t-20.5 -75z" />
<glyph unicode="6" horiz-adv-x="995" d="M66 588q0 -287 114.5 -452t315.5 -165q176 0 307 144.5t131 335.5q0 186 -130 312t-310 126q-160 0 -252 -125q0 68 23.5 166t64.5 199.5t110.5 173t149.5 71.5q70 0 104.5 -27.5t40.5 -61.5t25.5 -61.5t60.5 -27.5q76 0 76 72q0 68 -65.5 107.5t-176.5 39.5 q-236 0 -412.5 -239.5t-176.5 -587.5zM231 451q0 406 271 405q131 0 198.5 -112.5t67.5 -292.5q0 -205 -67.5 -326t-206.5 -121q-123 0 -193 128.5t-70 318.5z" />
<glyph unicode="7" horiz-adv-x="862" d="M41 1008h14q4 57 72 127.5t172 70.5h463l-555 -1020q-6 -12 -20.5 -36.5t-21.5 -38t-13.5 -35t-6.5 -41.5q0 -29 22.5 -46.5t55.5 -17.5q57 0 84 29t60 113l485 1216v21h-614q-41 0 -66 17t-29 36l-2 18h-14z" />
<glyph unicode="8" horiz-adv-x="1019" d="M82 322q0 -90 46 -162t115.5 -111t138.5 -58.5t124 -19.5q72 0 141.5 19.5t138 60.5t110.5 120t42 185q0 160 -85 249t-241 163q256 119 256 340q0 154 -109.5 228.5t-264.5 74.5q-41 0 -84 -6t-99.5 -28.5t-99.5 -58.5t-72.5 -104.5t-29.5 -156.5q0 -131 73.5 -209 t210.5 -148q-311 -109 -311 -378zM244 326q0 125 57.5 220t120.5 140q84 -37 138 -67.5t112.5 -76.5t87 -106.5t28.5 -136.5q0 -88 -28.5 -150.5t-73.5 -91t-84 -41t-76 -12.5q-39 0 -78.5 10.5t-90 40t-82 99t-31.5 172.5zM246 1143q0 238 223 237q106 0 179 -65.5 t73 -218.5q0 -98 -25.5 -166t-50 -93.5t-67.5 -52.5q-168 68 -250 140.5t-82 218.5z" />
<glyph unicode="9" horiz-adv-x="1019" d="M76 932q0 -186 130 -312t310 -126q160 0 252 124q0 -68 -23.5 -166t-64.5 -198t-110.5 -171t-149.5 -71q-70 0 -104.5 28t-41 59.5t-26 59t-60.5 27.5q-76 0 -75 -71q0 -68 65.5 -106t175.5 -38q236 0 413 238t177 586q0 287 -114.5 453.5t-315.5 166.5 q-176 0 -307 -146.5t-131 -336.5zM242 932q0 205 67.5 327.5t206.5 122.5q123 0 192.5 -130t69.5 -320q0 -406 -270 -406q-131 0 -198.5 113t-67.5 293z" />
<glyph unicode=":" horiz-adv-x="456" d="M121 78q0 -45 30.5 -76t75.5 -31t76 31t31 76t-31 76.5t-76 31.5t-75.5 -31.5t-30.5 -76.5zM121 783q0 -45 30.5 -76t75.5 -31t76 31t31 76t-31 76.5t-76 31.5t-75.5 -31.5t-30.5 -76.5z" />
<glyph unicode=";" horiz-adv-x="456" d="M104 -272l13 -27q102 35 177 127t75 190q0 80 -41 123t-103 43q-51 0 -83.5 -33.5t-32.5 -80.5q0 -45 31.5 -73t78.5 -28q53 0 72 29q0 -174 -187 -270zM119 780q0 -45 30.5 -75.5t75.5 -30.5t76 30.5t31 75.5t-31 76t-76 31t-75.5 -31t-30.5 -76z" />
<glyph unicode="&#x3c;" horiz-adv-x="1091" d="M74 549l960 -549v121l-839 477l829 436v113l-950 -494v-104z" />
<glyph unicode="=" horiz-adv-x="1036" d="M162 367l2 -66h700v68zM162 571l2 -65h700v67z" />
<glyph unicode="&#x3e;" horiz-adv-x="1091" d="M166 0v109l756 430l-748 391v102l856 -444v-94z" />
<glyph unicode="?" horiz-adv-x="968" d="M133 1245q0 -20 10.5 -33.5t26.5 -13.5q63 0 86 82q29 100 137 100q115 0 205 -120.5t90 -315.5q0 -152 -53 -252t-168 -100q-209 0 -209 262h-43v-584h64v346q39 -39 77.5 -52t112.5 -13q150 0 258.5 105.5t108.5 289.5q0 111 -42 204t-106.5 150.5t-138.5 89t-141 31.5 q-92 0 -183.5 -58t-91.5 -118zM137 78q0 -45 31 -76t76 -31t75.5 31t30.5 76t-30.5 76.5t-75.5 31.5t-76 -31.5t-31 -76.5z" />
<glyph unicode="@" horiz-adv-x="1622" d="M104 487q0 -174 61.5 -317t164 -235.5t233.5 -142.5t275 -50q137 0 245.5 26.5t152.5 53t44 43.5q0 12 -12 12q-4 0 -18.5 -11t-43 -26.5t-71.5 -31t-121 -26.5t-176 -11q-150 0 -263.5 58t-179 160.5t-98.5 228.5t-33 274q0 283 172 457.5t424 174.5q209 0 370 -160.5 t161 -424.5q0 -236 -54.5 -376t-142.5 -136q-57 2 -70.5 43t-13.5 137v436q0 240 -326 240q-98 0 -192 -42t-94 -112q0 -35 21.5 -57.5t53.5 -22.5q68 0 80 76q12 74 42 99.5t85 25.5q47 0 81 -14.5t51.5 -34t25.5 -56t10 -64.5t2 -75q0 -61 -49 -107t-119 -57 q-178 -23 -253.5 -75t-75.5 -172q0 -33 10 -65t35.5 -68.5t80 -59t132.5 -22.5q111 0 150.5 20t78.5 82q78 -98 199 -98q100 0 180 55t124 143t66.5 182.5t22.5 184.5q0 238 -195.5 421t-480.5 183q-334 0 -543 -205t-209 -461zM612 186q0 43 21.5 81t62.5 69t80 52.5 t93.5 50t80.5 44.5v-186q0 -139 -38.5 -212t-153.5 -73q-63 0 -97 29t-41.5 61.5t-7.5 83.5z" />
<glyph unicode="A" d="M10 0h453v27h-17q-84 0 -120.5 50t-36.5 128q0 72 33 149l81 185h478l24 -62q94 -242 94 -325q0 -125 -165 -125h-25v-27h655v27h-24q-150 0 -236 221l-448 1138h-6l-488 -1079q-82 -178 -141 -235q-47 -45 -94 -45h-17v-27zM422 580l237 522l205 -522h-442zM784 469z " />
<glyph unicode="B" horiz-adv-x="1366" d="M72 0h766q141 0 199.5 11.5t121.5 49.5q68 43 120 135.5t52 176.5t-37 151.5t-90 107.5t-117.5 66.5t-113.5 35.5t-84 9q309 76 309 326q0 113 -66.5 185.5t-162 101t-213.5 28.5h-672v-26h25q203 0 202 -234v-852q0 -121 -61.5 -183t-155.5 -62h-22v-27zM518 272v449 h160q205 0 303 -67.5t98 -266.5q0 -176 -92 -268t-250 -92q-113 0 -166 53t-53 192zM518 745l2 615h119q340 0 340 -316q0 -156 -75 -227.5t-247 -71.5h-139z" />
<glyph unicode="C" horiz-adv-x="1368" d="M88 692q0 -342 195.5 -532.5t527.5 -190.5q86 0 172 23.5t167 71t132 133.5t51 198h-26q0 -156 -126 -263t-337 -107q-229 0 -373.5 189t-144.5 478t140 493t345 204q184 0 301 -96.5t178 -340.5h19l-11 430h-22q-4 -18 -19.5 -36.5t-35.5 -18.5q-6 0 -148.5 44 t-286.5 44q-295 0 -496.5 -217t-201.5 -506z" />
<glyph unicode="D" horiz-adv-x="1605" d="M72 0h737q197 0 340 59.5t220 162t112 219t35 251.5q0 96 -21.5 187.5t-76 185.5t-138.5 162.5t-221 112.5t-311 44h-662v-26h25q201 0 200 -234v-852q0 -121 -61.5 -183t-155.5 -62h-22v-27zM518 272v1074h170q125 0 229.5 -45.5t171 -115t111.5 -158.5t64.5 -173 t19.5 -162q0 -258 -157.5 -461.5t-409.5 -203.5q-53 0 -81 5t-59.5 27.5t-45 74.5t-13.5 138z" />
<glyph unicode="E" horiz-adv-x="1351" d="M72 0h1231l14 401h-23q-39 -376 -444 -376h-2q-172 0 -252 60t-80 187v449h113q106 0 168.5 -65.5t62.5 -176.5v-22h23v542h-23v-22q0 -229 -213 -229h-131v610h244q385 0 407 -297h29l-22 323h-1090v-26h25q201 0 200 -234l2 -852q0 -121 -61.5 -183t-155.5 -62h-22v-27 zM774 469z" />
<glyph unicode="F" horiz-adv-x="1232" d="M72 0h684v27h-23q-92 0 -153.5 63.5t-61.5 181.5v449h113q106 0 168.5 -65.5t62.5 -176.5v-22h23v542h-23v-22q0 -229 -213 -229h-131v610h244q385 0 407 -297h29l-22 323h-1088v-26h25q199 0 198 -234v-852q-2 -121 -63.5 -183t-153.5 -62h-22v-27z" />
<glyph unicode="G" horiz-adv-x="1605" d="M88 692q0 -352 190.5 -537.5t542.5 -185.5q268 0 451 154l76 -14v233q0 49 15 81t45 44t53.5 16t58.5 4h24v43h-657v-43h24q217 0 217 -182q0 -27 -7 -59.5t-27.5 -77.5t-53 -81t-90 -60.5t-129.5 -24.5q-205 0 -345 202t-140 488q0 289 140 490.5t345 201.5 q176 0 290 -97t173 -335h19l-11 430h-22q-4 -18 -19.5 -36.5t-36.5 -18.5q-18 0 -72.5 22.5t-140.5 44t-180 21.5q-317 0 -525 -207t-208 -516z" />
<glyph unicode="H" horiz-adv-x="1787" d="M72 0h684v27h-23q-94 0 -154.5 62.5t-60.5 182.5v420h752v-420q0 -121 -60.5 -183t-154.5 -62h-23v-27h684v27h-22q-94 0 -155.5 62.5t-61.5 182.5v852q0 233 200 234h25v26h-655v-26h24q199 0 199 -234v-391h-752v391q0 233 199 234h24v26h-655v-26h25q201 0 200 -234 v-852q0 -121 -61.5 -183t-155.5 -62h-22v-27z" />
<glyph unicode="I" horiz-adv-x="827" d="M72 0h686v27h-23q-94 0 -155.5 62.5t-61.5 182.5v852q0 233 201 234h24v26h-657v-26h25q201 0 200 -234v-852q0 -121 -61.5 -183t-155.5 -62h-22v-27zM414 469z" />
<glyph unicode="J" horiz-adv-x="950" d="M-51 -178q0 -78 96 -122t203 -44q199 0 302 83t103 222v1163q0 233 201 234h25v26h-656v-26h25q199 0 198 -234l3 -1163q0 -283 -179 -283q-25 0 -45 8.5t-31.5 17.5t-23.5 30.5t-15 30t-12 36.5l-10 29q-31 90 -94 90q-35 0 -62.5 -23.5t-27.5 -74.5z" />
<glyph unicode="K" horiz-adv-x="1529" d="M72 0h684v27h-23q-94 0 -155.5 62.5t-61.5 182.5v353l113 106l383 -502q53 -70 53 -110q0 -43 -38 -67.5t-95 -24.5h-23v-27h631v27h-22q-45 0 -99.5 39.5t-91.5 89.5l-549 714l203 191q307 297 391 297h14v26h-419v-26h16q45 0 78 -20.5t33 -61.5q0 -14 -7.5 -32.5 t-21.5 -38t-28.5 -38t-40 -43t-43 -41t-48.5 -45t-47 -43.5l-342 -321v450q0 233 201 234h24v26h-655v-26h25q201 0 200 -234v-852q0 -121 -61.5 -183t-155.5 -62h-22v-27z" />
<glyph unicode="L" horiz-adv-x="1327" d="M72 0h1231l14 401h-23q-39 -376 -444 -376h-2q-172 0 -252 60t-80 187v852q0 233 201 234h24v26h-655v-26h25q199 0 198 -234l2 -852q0 -121 -61.5 -183t-155.5 -62h-22v-27z" />
<glyph unicode="M" horiz-adv-x="1933" d="M61 0h488v27h-23q-92 0 -146 62.5t-54 182.5v1026l540 -1302h13l538 1302v-1026q0 -121 -61.5 -183t-155.5 -62h-22v-27h684v27h-23q-94 0 -155.5 62.5t-61.5 182.5q-6 522 -6 637q0 309 22 361q37 88 158 88h25v26h-406l-454 -1103l-463 1103h-422v-26h24 q78 0 115 -15.5t53 -66.5q23 -72 23 -367l-6 -637q0 -121 -54.5 -183t-146.5 -62h-23v-27z" />
<glyph unicode="N" horiz-adv-x="1607" d="M61 0h488v27h-23q-92 0 -146 62.5t-54 182.5v953l989 -1237h24v921q0 260 41 354.5t146 94.5h16v26h-452v-26h16q104 0 141 -92t37 -357v-571l-840 1046h-376v-26h24q197 0 197 -228v-858q0 -121 -56.5 -183t-148.5 -62h-23v-27z" />
<glyph unicode="O" horiz-adv-x="1642" d="M88 692q0 -295 216 -509t517 -214t517 214t216 509t-216 509t-517 214t-517 -214t-216 -509zM336 692q0 289 140 490.5t345 201.5q207 0 348.5 -201.5t141.5 -490.5q0 -287 -141.5 -488.5t-348.5 -201.5q-205 0 -345 201.5t-140 488.5z" />
<glyph unicode="P" horiz-adv-x="1277" d="M72 0h684v27h-23q-92 0 -153.5 63.5t-61.5 181.5v406q131 -8 201 -8q104 0 181 13t146.5 50t106.5 110.5t37 182.5q-4 164 -97.5 261t-277.5 97h-727v-26h25q199 0 198 -234v-852q0 -121 -61.5 -183t-155.5 -62h-22v-27zM518 700v658q94 0 148.5 -4t122 -21.5 t103.5 -51.5t60.5 -96.5t24.5 -154.5q0 -104 -33 -174t-94.5 -102.5t-122.5 -44t-145 -11.5q-10 0 -32 1t-32 1z" />
<glyph unicode="Q" horiz-adv-x="1673" d="M88 692q0 -305 217 -514t555 -209q51 -68 80 -101.5t86 -83.5t128 -72.5t157 -22.5q109 0 187.5 39t116.5 88t59.5 120.5t24.5 110.5t3 84h-19q0 -100 -78.5 -184t-240.5 -84q-70 0 -131.5 23.5t-95 49t-82.5 72.5q219 74 359 263.5t140 420.5q0 295 -216 509t-517 214 t-517 -214t-216 -509zM336 692q0 289 140 490.5t345 201.5q207 0 348.5 -201.5t141.5 -490.5q0 -215 -83 -388t-220 -251q-66 59 -131.5 92t-159.5 33q-137 0 -185 -47q-92 94 -144 241.5t-52 319.5zM549 117q26 22 83 22h5q53 0 97 -34.5t100 -102.5q-164 0 -285 115z" />
<glyph unicode="R" horiz-adv-x="1536" d="M72 0h684v27h-23q-92 0 -153.5 63.5t-61.5 181.5v406q76 0 122 -2t91 -19.5t68.5 -33t60.5 -64.5t60.5 -91t74.5 -134l183 -334h393v27q-82 2 -128 23.5t-101.5 89t-153.5 227.5q-31 49 -67 113.5t-51 90t-43 56t-60.5 43t-83.5 20.5q158 37 232.5 106.5t74.5 229.5 q0 162 -95.5 260t-279.5 98h-727v-26h25q199 0 198 -234v-852q0 -121 -61.5 -183t-155.5 -62h-22v-27zM518 700v658q94 0 148.5 -4t122 -21.5t103.5 -51.5t60.5 -96.5t24.5 -154.5q0 -104 -33 -174t-94.5 -102.5t-122.5 -44t-145 -11.5q-10 0 -32 1t-32 1z" />
<glyph unicode="S" horiz-adv-x="1044" d="M92 406l12 -426h25q0 63 61 63q20 0 132 -36t221 -36q211 0 325.5 122t114.5 300q0 113 -51 194t-130 123t-170 83t-169 75.5t-130 102t-52 159.5q0 59 18 105.5t45 73t60.5 44t61.5 22.5t52 5q102 0 187.5 -80.5t124 -165.5t38.5 -133h23l-12 388h-21q0 -68 -70 -68 q-25 0 -109.5 47t-166.5 47q-152 0 -266.5 -108.5t-114.5 -270.5q0 -98 36 -169.5t93 -113.5t127 -76t138.5 -64.5t126 -68.5t93 -101.5t35.5 -149.5q0 -135 -68.5 -212t-174.5 -77q-94 0 -171 37t-121 89t-76 111.5t-43 101.5t-11 63h-23zM539 469z" />
<glyph unicode="T" horiz-adv-x="1437" d="M10 1024h29q12 143 118.5 231t299.5 88h157v-1071q0 -121 -61 -183t-156 -62h-49v-27h742v27h-50q-94 0 -155.5 62.5t-61.5 182.5v1071h158q193 0 299 -88t119 -231h28l-28 360h-1360z" />
<glyph unicode="U" horiz-adv-x="1626" d="M72 1358h24q201 0 201 -234v-757q0 -227 132 -314.5t433 -87.5q258 0 379 108.5t121 342.5v493q0 260 41 354.5t145 94.5h17v26h-453v-26h16q104 0 140.5 -91t38.5 -358l2 -446q0 -217 -89.5 -328.5t-306.5 -111.5q-412 0 -411 393v708q0 233 200 234h25v26h-655v-26z M891 469z" />
<glyph unicode="V" horiz-adv-x="1404" d="M-10 1358h24q35 0 63.5 -5t50.5 -20.5t35 -25t28.5 -39t20.5 -38.5t19.5 -47t16.5 -46l457 -1143h22l444 1145q86 219 236 219h16v26h-452v-26h16q143 0 143 -141q0 -90 -81 -299l-250 -639l-250 628q-94 242 -94 326q0 125 166 125h24v26h-655v-26z" />
<glyph unicode="W" horiz-adv-x="2230" d="M-10 1358h24q41 0 79 -21.5t62.5 -46t52.5 -73t39 -72t32 -74.5l450 -1071h23l374 1104l377 -1104h23l438 1071q29 70 37 88.5t30.5 66.5t37 61t40 36t55 29t68.5 6h17v26h-463v-26h16q152 0 152 -137q0 -78 -60 -226l-292 -714l-261 790q-29 90 -28 146q0 141 178 141 h25v26h-644v-26h25q100 0 145 -55.5t45 -145.5q0 -72 -32 -162l-244 -714l-289 714q-80 203 -80 254q0 109 168 109h25v26h-645v-26z" />
<glyph unicode="X" horiz-adv-x="1435" d="M-20 0h491v27h-16q-142 0 -142 93q0 92 127 251l211 272l172 -248q135 -195 135 -274q0 -94 -153 -94h-25v-27h717v27h-24q-154 0 -345 272l-350 502l238 295q2 2 28.5 36.5t39 49t43 47.5t53 50t54.5 38.5t63.5 31t62.5 9.5h16v26h-461v-26h17q129 0 129 -78 q0 -70 -135 -238l-170 -213l-109 160q-135 195 -135 285q0 84 119 84h24v26h-655v-26h25q45 0 83.5 -14.5t76.5 -53.5t55.5 -58.5t57.5 -79.5t44 -67l289 -415l-287 -363q-2 -2 -25.5 -33.5t-44 -57.5t-56.5 -63.5t-68.5 -63.5t-74.5 -44t-79 -18h-16v-27z" />
<glyph unicode="Y" horiz-adv-x="1331" d="M-37 1358h25q49 0 91 -20.5t79 -63.5t55 -71.5t51 -84.5l232 -391q45 -78 62 -131t17 -137v-187q0 -121 -60 -183t-155 -62h-22v-27h684v27h-23q-92 0 -153.5 63.5t-61.5 181.5v187q0 82 17.5 137t60.5 129l182 309q72 123 160 223.5t166 100.5h16v26h-452v-26h16 q129 0 129 -109q0 -82 -106 -266l-160 -276l-45 -70q-18 31 -35 59l-203 346q-92 156 -92 218q0 98 156 98h24v26h-655v-26z" />
<glyph unicode="Z" horiz-adv-x="1441" d="M92 0h1227l20 432h-22q-35 -170 -158 -280.5t-293 -110.5h-508l885 1321v22h-1085l-35 -362h27q90 321 415 321h2h430l-905 -1329v-14zM709 469z" />
<glyph unicode="[" horiz-adv-x="557" d="M119 -266v1638h315v-57h-182v-1522h203v-59h-336z" />
<glyph unicode="]" horiz-adv-x="557" d="M45 -207v-59h338v1638h-315v-57h182v-1522h-205z" />
<glyph unicode="^" horiz-adv-x="827" d="M121 955h82l198 188l199 -188h82l-234 334h-94zM401 -59z" />
<glyph unicode="_" horiz-adv-x="921" d="M0 -143v-86h922v86h-922z" />
<glyph unicode="`" horiz-adv-x="704" d="M135 1278q0 -41 49 -72l328 -192h76l-322 313q-27 27 -57 27q-33 0 -53.5 -21.5t-20.5 -54.5zM420 0z" />
<glyph unicode="a" horiz-adv-x="915" d="M80 195q0 -33 10 -65t36 -68.5t80 -59t132 -22.5q170 0 235 102q57 -98 193 -98q61 0 99 17t48.5 32.5t20.5 44.5l-16 8q-12 -20 -20.5 -30.5t-28 -19.5t-48.5 -9q-55 0 -70.5 43t-15.5 137v436q0 133 -86 186.5t-237 53.5q-98 0 -192.5 -42t-94.5 -112q0 -35 21.5 -57.5 t54.5 -22.5q63 0 75 76q12 74 44 99.5t88 25.5q51 0 86.5 -14.5t53 -34t28 -57t11.5 -63.5t1 -75q0 -59 -52.5 -105t-125.5 -59q-330 -57 -330 -247zM240 186q0 59 38.5 108.5t85 75t120 59.5t104.5 54v-186q0 -135 -43 -210t-160 -75q-63 0 -97 29t-41 61.5t-7 83.5zM436 0 z" />
<glyph unicode="b" horiz-adv-x="1062" d="M31 1356q104 -2 126.5 -40t22.5 -186v-1155h27q14 54 53 54q8 0 110.5 -29t182.5 -29q211 0 324.5 131t113.5 328q0 188 -125 323.5t-313 135.5q-59 0 -117.5 -20.5t-84 -38t-36.5 -27.5v612h-18q-215 -35 -266 -39v-20zM311 430q0 231 40 328.5t175 97.5q147 0 224 -120 t77 -306q0 -178 -75.5 -302t-225.5 -124q-61 0 -102 19.5t-63.5 48t-34 91t-13.5 115t-2 152.5z" />
<glyph unicode="c" horiz-adv-x="854" d="M72 430q0 -207 115.5 -333t332.5 -126q291 0 324 234h-23q-23 -88 -76 -133t-178 -45q-331 0 -331 401q0 184 71.5 306t194.5 122q84 0 110.5 -24.5t42.5 -106.5q14 -70 86 -70q33 0 53.5 20.5t20.5 55.5q0 78 -101 118t-212 40q-188 0 -309 -134t-121 -325z" />
<glyph unicode="d" horiz-adv-x="1095" d="M72 430q0 -197 113.5 -328t324.5 -131q166 0 252 115l12 -117h17q61 16 125.5 25.5t99.5 11.5l35 2v27q-90 0 -117 32.5t-27 141.5v1206h-20q-213 -35 -264 -39v-20q104 -2 126.5 -40t22.5 -186v-354q-88 113 -262 113q-188 0 -313 -135.5t-125 -323.5zM236 430 q0 193 66.5 309.5t211.5 116.5q147 0 206.5 -104.5t59.5 -321.5q0 -219 -58 -322.5t-208 -103.5q-102 0 -166.5 64.5t-88 154.5t-23.5 207z" />
<glyph unicode="e" horiz-adv-x="903" d="M61 430q0 -207 116 -333t333 -126q156 0 244 64.5t110 169.5h-22q-37 -88 -99.5 -133t-185.5 -45q-332 0 -332 401q0 84 6 154h621q0 152 -118 229.5t-251 77.5q-186 0 -304 -134t-118 -325zM236 614q16 117 73 179.5t174 62.5q111 0 162 -59.5t51 -182.5h-460zM479 0z " />
<glyph unicode="f" horiz-adv-x="581" d="M61 821h162v-549q0 -147 -23.5 -196t-115.5 -49v-27h410v27q-92 0 -114 46t-22 199v549h232v41h-232v262q0 281 134 281q35 0 55 -15.5t51 -80.5q2 -4 9 -19.5t9 -19.5t9.5 -14.5t12.5 -13.5t14.5 -6t19.5 -3q63 0 63 63q0 35 -27.5 61.5t-69.5 39t-80 18.5t-66 6 q-76 0 -130.5 -22.5t-81 -51t-40 -77.5t-15.5 -76t-2 -70v-262h-162v-41z" />
<glyph unicode="g" horiz-adv-x="882" d="M51 -172q0 -88 62.5 -144.5t139.5 -75t169 -18.5q53 0 115.5 12.5t138.5 42t126 93t50 151.5q0 115 -86 184.5t-223 69.5h-189q-170 0 -170 76q0 43 68 69q55 22 91 22q8 0 15 -1q25 -4 62 -4q125 0 219 81t94 200q0 117 -94 211q14 16 45 29.5t49 13.5q37 0 58 -35 q31 -49 73 -49q53 0 54 53q0 37 -33 58.5t-86 21.5q-90 0 -181 -76q-92 76 -198 76q-123 0 -217 -91t-94 -212q0 -88 53 -158t131 -98q-102 -16 -142 -64.5t-40 -97.5q0 -63 58 -108.5t150 -45.5h150q252 0 252 -172q0 -12 -4 -31.5t-21.5 -54.5t-46 -64.5t-89 -51 t-138.5 -21.5q-164 0 -237.5 62.5t-73.5 132t25.5 97.5t56.5 28q39 0 59 -16.5t20 -35.5q23 10 23 41q0 27 -29.5 46.5t-79.5 19.5q-45 0 -90 -38t-45 -128zM262 596q0 260 160 260q168 0 168 -260q0 -258 -168 -258q-160 0 -160 258z" />
<glyph unicode="h" horiz-adv-x="1128" d="M61 1356q100 -2 126 -36t26 -163v-885q0 -147 -23.5 -196t-115.5 -49v-27h409v27q-92 0 -113.5 46t-21.5 199v248q0 162 35 217q33 49 89 84t122 35q203 0 203 -233v-351q0 -147 -23.5 -196t-116.5 -49v-27h410v27q-92 0 -113.5 46t-21.5 199v351q0 162 -68.5 214 t-204.5 52q-215 0 -311 -135v661h-18q-217 -35 -269 -39v-20z" />
<glyph unicode="i" horiz-adv-x="563" d="M76 836q100 -2 123.5 -36t23.5 -163v-365q0 -150 -21.5 -197.5t-113.5 -47.5v-27h404v27q-92 0 -113 45t-21 200v623h-20q-211 -35 -262 -39v-20zM193 1325q0 -37 24.5 -61.5t61 -24.5t62.5 24.5t26 61.5t-26 62.5t-62.5 25.5t-61 -25.5t-24.5 -62.5z" />
<glyph unicode="j" horiz-adv-x="503" d="M-164 -252q0 -47 42 -80t89 -45t86 -12q295 0 295 393v891h-20q-205 -35 -256 -39v-20q96 -2 118.5 -39t22.5 -160v-705q0 -172 -25.5 -235.5t-115.5 -63.5q-49 0 -75 28t-31 61.5t-22.5 61.5t-52.5 28q-55 0 -55 -64zM186 1325q0 -37 25 -61.5t61.5 -24.5t62 24.5 t25.5 61.5t-25.5 62.5t-62 25.5t-61.5 -25.5t-25 -62.5z" />
<glyph unicode="k" horiz-adv-x="976" d="M45 1356q98 0 124 -35t26 -162v-887q0 -147 -24 -196t-116 -49v-27h410v27q-92 0 -113.5 46t-21.5 199v109l69 65l152 -161q18 -20 44 -48t38 -40.5t27.5 -29.5t21.5 -28.5t10 -25t4 -27.5q0 -39 -22.5 -49t-75.5 -10h-16v-27h528v27h-53q-90 0 -219 141l-349 364 l162 154q160 150 250 150h17v26h-400v-26h17q49 0 73.5 -22.5t24.5 -53.5q0 -51 -80 -125l-223 -213v993h-19q-215 -35 -266 -39v-20z" />
<glyph unicode="l" horiz-adv-x="526" d="M43 1356q100 -2 125 -36t25 -163v-885q0 -147 -24 -196t-116 -49v-27h410v27q-92 0 -113.5 46t-21.5 199v1143h-19q-215 -35 -266 -39v-20z" />
<glyph unicode="m" horiz-adv-x="1718" d="M72 836q106 -4 127.5 -36t21.5 -173v-355q0 -147 -23.5 -196t-115.5 -49v-27h410v27q-92 0 -114 46t-22 199v248q0 164 35 217q33 49 89.5 84t121.5 35q203 0 203 -233v-351q0 -147 -23.5 -196t-115.5 -49v-27h407v27q-92 0 -112.5 45t-20.5 200v248q0 158 28.5 209 t89 89t126.5 38q203 0 202 -233v-351q0 -147 -23.5 -196t-115.5 -49v-27h410v27q-92 0 -113.5 46t-21.5 199v351q0 86 -20.5 141t-62.5 80.5t-87 35t-113 9.5q-125 0 -193.5 -42t-119.5 -112q-20 92 -86 123t-176 31q-207 0 -308 -135l-10 135l-14 6q-133 -25 -260 -39v-20z " />
<glyph unicode="n" horiz-adv-x="1136" d="M72 836q106 -4 127.5 -37t21.5 -170v-357q0 -147 -23.5 -196t-115.5 -49v-27h410v27q-92 0 -114 46t-22 199v254q0 158 35 211q33 49 89.5 84t121.5 35q203 0 203 -233v-351q0 -147 -23.5 -196t-115.5 -49v-27h409v27q-92 0 -113.5 46t-21.5 199v351q0 164 -68.5 215 t-203.5 51q-209 0 -312 -135l-10 135l-14 6q-133 -25 -260 -39v-20z" />
<glyph unicode="o" horiz-adv-x="1073" d="M72 430q0 -186 137 -322.5t327.5 -136.5t327.5 136.5t137 322.5t-137 322.5t-327.5 136.5t-327.5 -136.5t-137 -322.5zM236 430q0 176 88 301t213 125q127 0 214 -124t87 -302t-87 -302t-214 -124q-125 0 -213 125t-88 301zM537 0z" />
<glyph unicode="p" horiz-adv-x="1124" d="M47 -391v-27h428v27q-98 0 -119.5 80t-21.5 391q53 -55 107.5 -82t148.5 -27q211 0 324.5 131t113.5 328q0 188 -125 323.5t-313 135.5q-158 0 -252 -117l-4 123h-21q-211 -35 -262 -39v-20q100 -2 124 -36t24 -163v-782q0 -150 -24.5 -198t-127.5 -48zM326 430 q0 199 59 312.5t178 113.5q147 0 224 -120t77 -306q0 -178 -75.5 -302t-225.5 -124q-141 0 -189 100.5t-48 325.5z" />
<glyph unicode="q" horiz-adv-x="1064" d="M59 430q0 -195 126 -335t331 -140q145 0 238 102q0 -303 -21.5 -375.5t-120.5 -72.5v-27h428v27q-102 0 -126.5 48t-24.5 198v1040h-29q-18 -84 -84 -84q-20 0 -52 19.5t-88 39t-138 19.5q-188 0 -313.5 -135.5t-125.5 -323.5zM223 430q0 186 77 306t224 120 q141 0 189.5 -105.5t48.5 -320.5q0 -115 -8.5 -187.5t-32 -135t-71.5 -91t-126 -28.5q-150 0 -225.5 131t-75.5 311z" />
<glyph unicode="r" horiz-adv-x="724" d="M41 836q106 -4 127.5 -37t21.5 -170v-357q0 -147 -23.5 -196t-115.5 -49v-27h410v27q-92 0 -113.5 46t-21.5 199v299q0 111 28 158q53 92 131 92q37 0 60.5 -17.5t33 -39t27 -38.5t43.5 -17q29 0 47.5 22.5t18.5 50.5q0 39 -37 68t-100 29q-158 0 -252 -125l-11 135 l-14 6q-133 -25 -260 -39v-20z" />
<glyph unicode="s" horiz-adv-x="759" d="M96 270l17 -284h26q0 12 14.5 22t39 10t78 -23.5t118.5 -23.5q133 0 207 80t74 170t-46 152.5t-112 95.5t-131.5 62.5t-111.5 76.5t-46 115q0 45 16.5 74.5t42 41t43 15.5t33.5 4q90 0 150.5 -87t60.5 -142h15l-17 256h-12q0 -43 -35 -43q-12 0 -67.5 23.5t-98.5 23.5 q-80 0 -153.5 -60.5t-73.5 -175.5q0 -86 42 -145t100.5 -91t117.5 -62.5t101 -80.5t42 -124q0 -70 -44 -108t-107 -38q-74 0 -130 36t-84 86t-40 88t-14 56h-15zM377 0z" />
<glyph unicode="t" horiz-adv-x="608" d="M84 829h123l-17 -649v-7q0 -101 54 -151q56 -52 159 -51q53 0 93.5 9.5t64 26t35.5 28.5t22 31l11 20l-17 10q-47 -82 -145 -82q-72 0 -97.5 57.5t-25.5 202.5v555h240v33h-240v262h-20q-20 -111 -70.5 -180.5t-169.5 -85.5v-29z" />
<glyph unicode="u" horiz-adv-x="1130" d="M57 836q96 0 121 -47.5t25 -198.5v-346q0 -90 24.5 -148.5t73.5 -83t94 -33t115 -8.5q197 0 276 115l9 -106l14 -7q133 10 260 25v20q-104 4 -125.5 35t-21.5 170v639h-269v-26q92 0 112.5 -45.5t20.5 -200.5v-273q0 -176 -34 -221q-72 -92 -224 -92q-86 0 -138 58.5 t-52 181.5v618h-281v-26zM567 0z" />
<glyph unicode="v" horiz-adv-x="917" d="M-20 846h16q35 0 60.5 -9.5t43 -34t25.5 -41t25 -54.5l290 -713h17l243 565q4 10 17.5 42t23 52.5t25.5 53t30.5 54t33 43t39 32t42.5 10.5h11v16h-314v-16h10q45 0 75 -31t30 -82q0 -49 -55 -174l-156 -364l-150 368q-57 139 -57 191q0 39 35 65.5t82 26.5h14v16h-456 v-16z" />
<glyph unicode="w" horiz-adv-x="1347" d="M0 846h16q35 0 60.5 -10.5t43 -33t27 -42t23.5 -53.5l287 -713h14l213 641l213 -641h14l217 565q109 287 209 287h11v16h-314v-16h10q43 0 74 -30t31 -77t-53 -180l-127 -330l-213 643h-27l-211 -643l-135 334q-57 139 -57 191q0 39 34.5 65.5t81.5 26.5h15v16h-457v-16z " />
<glyph unicode="x" horiz-adv-x="917" d="M-8 0h403v27h-16q-68 0 -93.5 22.5t-25.5 73.5q0 53 59 139l93 131l129 -178q57 -82 57 -123q0 -65 -83 -65h-3h-16v-27h460v27h-12q-25 0 -48.5 8t-39.5 16t-34.5 27.5t-26 30t-23.5 34t-20 27.5l-254 340l135 164q133 162 233 162h17v26h-359v-26h17q49 0 75.5 -22.5 t26.5 -53.5q0 -45 -74 -131l-84 -101l-116 156q-49 61 -50 92q0 25 28 42.5t61 17.5h16v26h-418v-26h19q33 0 64.5 -19.5t46 -35t42 -57.5t29.5 -44l192 -270l-163 -222q-120 -161 -227 -161h-1h-16v-27z" />
<glyph unicode="y" horiz-adv-x="956" d="M-10 846h16q35 0 59.5 -10.5t43 -34t27.5 -41t24 -53.5l293 -705q0 -88 -54 -199q-16 -37 -55 -67.5t-78 -30.5q-14 0 -37.5 8t-44.5 8q-71 0 -71 -55q0 -29 25.5 -52.5t68.5 -23.5q135 0 229 228l309 741q121 287 211 287h11v16h-314v-16h11q45 0 74.5 -31t29.5 -82 q0 -41 -53 -174l-168 -407l-174 411q-57 139 -58 191q0 39 35 65.5t82 26.5h14v16h-456v-16zM541 0z" />
<glyph unicode="z" horiz-adv-x="958" d="M61 0h803l29 291h-23q-33 -164 -115.5 -215t-344.5 -51h-158l582 817v20h-687l-26 -250h22q33 129 89.5 177.5t189.5 48.5h223l-584 -818v-20zM502 0z" />
<glyph unicode="{" horiz-adv-x="614" d="M29 500q0 29 22 28q6 0 19.5 -2t17.5 -2q158 0 154 162q-2 43 -25.5 187.5t-26.5 203.5q-4 119 66 201t178 88q31 2 86 2q14 0 14.5 -26.5t-14.5 -26.5q-2 0 -25.5 2t-33.5 0q-59 0 -105.5 -35t-44.5 -84q4 -88 25.5 -206t25.5 -163q12 -121 -51 -222t-141 -103 q-6 0 -6 -6t6 -6q78 -4 133 -87t49 -198q-4 -63 -18.5 -195.5t-18.5 -204.5q-2 -57 34 -98t93 -47h29.5t24 1t16.5 1q12 0 12 -22q0 -25 -16 -25q-70 0 -107 2q-102 6 -160.5 81t-54.5 179q2 104 23.5 244.5t23.5 167.5q20 182 -145 182q-4 0 -17.5 -2t-19.5 -2 q-23 0 -22 31z" />
<glyph unicode="|" horiz-adv-x="460" d="M180 -362h101v1804h-101v-1804z" />
<glyph unicode="}" horiz-adv-x="614" d="M29 1341.5q0 -26.5 16 -26.5q4 0 25.5 2t31.5 2q59 -2 105.5 -37t44.5 -84q-4 -90 -25.5 -211t-25.5 -158q-12 -121 51 -221t141 -104q8 0 8 -6t-6 -6q-78 -4 -134 -87t-48 -198q4 -72 18.5 -204t18.5 -196q2 -57 -35 -98t-92 -47h-29.5t-25 1t-15.5 1q-14 0 -14 -22 q0 -25 16 -25q70 0 107 2q102 6 160.5 81t54.5 179q-2 104 -23.5 244.5t-23.5 167.5q-8 90 23.5 136t121.5 46q6 0 18.5 -2t18.5 -2q23 0 23 31q0 29 -23 28q-6 0 -19.5 -2t-17.5 -2q-160 0 -151 162q0 47 24.5 191.5t26.5 199.5q4 119 -66.5 201t-179.5 88q-29 2 -84 2 q-16 0 -16 -26.5z" />
<glyph unicode="~" horiz-adv-x="712" d="M37 354h41q2 8 8 20.5t30.5 32t57.5 19.5q53 0 146.5 -41t154.5 -41q70 0 121 54.5t51 119.5l-31 4q0 -31 -31.5 -53.5t-95.5 -22.5q-37 0 -131 40t-153.5 40t-113.5 -48t-54 -124z" />
<glyph unicode="&#xa1;" horiz-adv-x="479" d="M133 1315q0 45 31 76t76 31t75.5 -31t30.5 -76t-30.5 -76.5t-75.5 -31.5t-76 31.5t-31 76.5zM135 142l94 1003h21l94 -1003q12 -133 -104 -133q-61 0 -86 38.5t-19 94.5z" />
<glyph unicode="&#xa2;" horiz-adv-x="854" d="M72 430q0 -207 115.5 -333t332.5 -126q291 0 324 234h-23q-23 -88 -76 -133t-178 -45q-332 0 -331 403q0 182 71.5 304t194.5 122q84 0 110.5 -24.5t42.5 -106.5q14 -70 86 -70q33 0 53.5 20.5t20.5 55.5q0 78 -101 118t-212 40q-188 0 -309 -134t-121 -325zM393 -139h37 l143 1153h-38z" />
<glyph unicode="&#xa3;" horiz-adv-x="1619" d="M57 129q0 -68 78 -105.5t187 -37.5q193 0 337 157q319 -156 476 -155q133 0 225 91t92 202h-31q-53 -178 -291 -179q-90 0 -423 99q90 121 129 233h251l3 39q-190 -2 -240 -2q16 66 22 102h240l2 39q-197 -2 -235 -2q10 78 10 156q0 281 88 444.5t233 163.5 q90 0 147.5 -65.5t57.5 -149.5t-44 -159.5t-114 -75.5q-72 0 -114 30l-15 -18q39 -51 142 -51q106 0 187 76.5t81 193.5q0 121 -84 185.5t-244 64.5q-221 0 -362 -213t-141 -508v-72h-224v-39h222q-4 -68 -9 -100h-237v-39h231q-18 -96 -78 -207q-170 47 -245 47 q-145 0 -227.5 -39.5t-82.5 -105.5zM178 129q0 117 193 117q100 0 209 -66q-115 -162 -258 -162q-66 0 -105 29t-39 82z" />
<glyph unicode="&#xa4;" horiz-adv-x="1013" d="M119 408l57 -58l166 166l-57 57zM119 1069l166 -166l57 58l-166 165zM178 737q0 -137 97.5 -234t234.5 -97t234.5 97t97.5 234t-97.5 234.5t-234.5 97.5t-234.5 -97.5t-97.5 -234.5zM260 737.5q0 102.5 74 176t176 73.5t177 -73.5t75 -176t-75 -177.5t-177 -75t-176 75 t-74 177.5zM672 516l166 -166l57 58l-166 165zM672 961l57 -58l166 166l-57 57z" />
<glyph unicode="&#xa6;" horiz-adv-x="921" d="M412 -344h98v827h-98v-827zM412 651h98v791h-98v-791z" />
<glyph unicode="&#xa7;" horiz-adv-x="976" d="M129 598q0 -170 137 -281q102 -86 291 -198q170 -100 170 -223q0 -78 -72.5 -130.5t-167.5 -52.5q-74 0 -117.5 29t-43.5 72q0 12 34.5 51t34.5 71.5t-30.5 57t-71.5 24.5q-35 0 -69 -31.5t-34 -86.5q0 -86 81 -160t249 -74q104 0 195.5 75t91.5 183q0 213 -225 342h53 q74 0 150.5 61.5t76.5 178.5q0 125 -133 256q-47 45 -278 184q-45 27 -59.5 37t-49.5 39t-48 62.5t-13 76.5q0 66 65.5 114t147.5 48q72 0 116.5 -24.5t44.5 -69.5q0 -12 -30.5 -45t-30.5 -74q0 -35 29.5 -56.5t66.5 -21.5q39 0 66.5 29t27.5 92q0 94 -88 155.5t-208.5 61.5 t-205.5 -74.5t-85 -197.5q0 -55 33.5 -111.5t68.5 -87.5t96 -80q-49 2 -106.5 -17.5t-108.5 -72.5t-51 -131zM209 641q0 74 82 115.5t164 23.5q20 -16 86.5 -60t93.5 -65q2 -2 21.5 -16t24.5 -19.5t22.5 -19.5t25.5 -23.5t20.5 -25.5t17.5 -29.5t10 -31t5 -35.5 q0 -86 -72.5 -123t-172.5 -29q-223 152 -254 184q-74 78 -74 154z" />
<glyph unicode="&#xa8;" horiz-adv-x="706" d="M94 1266q0 -37 24.5 -61.5t61.5 -24.5t62.5 24.5t25.5 61.5t-25.5 62.5t-62.5 25.5t-61.5 -25.5t-24.5 -62.5zM352 0zM438 1266q0 -37 24.5 -61.5t61.5 -24.5t62.5 24.5t25.5 61.5t-25.5 62.5t-62.5 25.5t-61.5 -25.5t-24.5 -62.5z" />
<glyph unicode="&#xa9;" horiz-adv-x="1198" d="M86 436q0 -209 146.5 -355.5t355.5 -146.5t357.5 146.5t148.5 355.5q0 211 -148.5 358.5t-357.5 147.5t-355.5 -147.5t-146.5 -358.5zM147 442.5q0 186.5 129.5 317.5t313.5 131q186 0 315 -131t129 -317.5t-129 -317.5t-315 -131q-184 0 -313.5 131t-129.5 317.5z M281 444q0 -152 84 -242.5t239 -90.5q211 0 234 168h-35q-35 -121 -174 -121q-211 0 -211 286q0 127 47 210t125 83q61 0 80.5 -15t32 -64.5t63.5 -49.5t51 51q0 57 -73.5 87t-153.5 30q-135 0 -222 -97t-87 -235z" />
<glyph unicode="&#xaa;" horiz-adv-x="475" d="M18 973q0 -49 40 -96.5t132 -47.5q100 0 148 68q41 -61 108 -61q51 0 79 26.5t28 57.5l-18 4q-10 -39 -46 -39q-49 0 -49 96v281q0 145 -209 145q-66 0 -126 -24.5t-60 -67.5q0 -23 14.5 -38t38.5 -15q18 0 36 15t20 36q20 59 73 59q111 0 111 -135q0 -76 -107 -92 q-96 -10 -154.5 -55t-58.5 -117zM131 967q0 35 8 57.5t29.5 39.5t41 26.5t60.5 27t68 31.5v-115q0 -168 -123 -168q-84 0 -84 101z" />
<glyph unicode="&#xac;" horiz-adv-x="1089" d="M113 731h776v-313h100v407h-876v-94z" />
<glyph unicode="&#xad;" horiz-adv-x="690" d="M98 395l447 -6l12 100l-459 -6v-88z" />
<glyph unicode="&#xae;" horiz-adv-x="1705" />
<glyph unicode="&#xb0;" horiz-adv-x="610" d="M74 1061q0 -96 67.5 -165t163.5 -69t165 69t69 165t-69 163.5t-165 67.5t-163.5 -68.5t-67.5 -162.5zM150 1060.5q0 65.5 46 111t109 45.5q66 0 112 -46.5t46 -109.5q0 -66 -46 -112t-111.5 -46t-110.5 46t-45 111.5z" />
<glyph unicode="&#xb4;" horiz-adv-x="706" d="M119 1014h76l327 192q49 31 49 72q0 33 -20.5 54.5t-52.5 21.5q-31 0 -58 -27zM283 0z" />
<glyph unicode="&#xb6;" horiz-adv-x="987" d="M57 1036q0 -152 105.5 -240.5t249.5 -88.5h96v-242.5v-258.5t-1 -227.5t-1 -173v-71.5q0 -16 3 -20.5t15 -4.5h41q12 0 15.5 5t3.5 22l-2 1610h172v-1610q0 -25 14 -25h47q16 0 16 21v113.5v285.5t-1 379t-1 431v405q86 -4 103 -5q18 0 18 19v37q0 14 -14 14 q-305 0 -461 -4q-193 -6 -305.5 -96t-112.5 -275z" />
<glyph unicode="&#xb7;" horiz-adv-x="466" d="M129 447q0 -45 30.5 -76t75.5 -31t76 31t31 76t-31 76.5t-76 31.5t-75.5 -31.5t-30.5 -76.5z" />
<glyph unicode="&#xb8;" horiz-adv-x="718" d="M197 -412l4 -26q113 0 196.5 61.5t83.5 151.5q0 61 -47 93t-127 23l174 115h-102l-166 -160v-22q66 4 99.5 -24.5t33.5 -78.5q0 -57 -44 -95t-105 -38z" />
<glyph unicode="&#xba;" horiz-adv-x="686" d="M102 1057q0 -88 70 -159t166 -71q98 0 169 63.5t71 174.5q0 104 -72 167.5t-168 63.5q-86 0 -161 -65.5t-75 -173.5zM203 1059q0 203 139 203q53 0 94 -43t41 -158q0 -201 -141 -201q-18 0 -39 8.5t-43.5 26.5t-36.5 61t-14 103z" />
<glyph unicode="&#xbf;" horiz-adv-x="944" d="M111 246q0 -111 42 -204t106.5 -150.5t138 -89t141.5 -31.5q92 0 183 58t91 118q0 20 -10 33.5t-27 13.5q-66 0 -88 -82q-29 -104 -137 -105q-115 0 -204 122t-89 319q0 152 53.5 252t167.5 100q209 0 209 -262h43v584h-63v-347q-39 39 -78 52.5t-113 13.5 q-150 0 -258 -105.5t-108 -289.5zM596 1124q0 -45 30.5 -75.5t76 -30.5t76 30.5t30.5 75.5t-30.5 77t-76 32t-76 -32t-30.5 -77z" />
<glyph unicode="&#xc0;" d="M10 0h453v27h-17q-84 0 -120.5 50t-36.5 128q0 72 33 149l81 185h478l24 -62q94 -242 94 -325q0 -125 -165 -125h-25v-27h655v27h-24q-150 0 -236 221l-448 1138h-6l-488 -1079q-82 -178 -141 -235q-47 -45 -94 -45h-17v-27zM422 580l237 522l205 -522h-442zM500 1747 q0 -41 49 -72l328 -192h76l-322 313q-27 27 -57 27q-33 0 -53.5 -21.5t-20.5 -54.5zM784 469zM785 469z" />
<glyph unicode="&#xc1;" d="M10 0h453v27h-17q-84 0 -120.5 50t-36.5 128q0 72 33 149l81 185h478l24 -62q94 -242 94 -325q0 -125 -165 -125h-25v-27h655v27h-24q-150 0 -236 221l-448 1138h-6l-488 -1079q-82 -178 -141 -235q-47 -45 -94 -45h-17v-27zM422 580l237 522l205 -522h-442zM621 1483h76 l327 192q49 31 49 72q0 33 -20.5 54.5t-52.5 21.5q-31 0 -58 -27zM784 469zM785 469z" />
<glyph unicode="&#xc2;" d="M10 0h453v27h-17q-84 0 -120.5 50t-36.5 128q0 72 33 149l81 185h478l24 -62q94 -242 94 -325q0 -125 -165 -125h-25v-27h655v27h-24q-150 0 -236 221l-448 1138h-6l-488 -1079q-82 -178 -141 -235q-47 -45 -94 -45h-17v-27zM422 580l237 522l205 -522h-442zM504 1483h82 l198 188l199 -188h82l-234 334h-94zM784 469zM784 469z" />
<glyph unicode="&#xc3;" d="M10 0h453v27h-17q-84 0 -120.5 50t-36.5 128q0 72 33 149l81 185h478l24 -62q94 -242 94 -325q0 -125 -165 -125h-25v-27h655v27h-24q-150 0 -236 221l-448 1138h-6l-488 -1079q-82 -178 -141 -235q-47 -45 -94 -45h-17v-27zM422 580l237 522l205 -522h-442zM432 1659h41 q2 8 8 20.5t30.5 32t57.5 19.5q53 0 146.5 -41t154.5 -41q70 0 121 54t51 120l-31 4q0 -31 -31.5 -53.5t-95.5 -22.5q-37 0 -131 40t-153.5 40t-113.5 -48t-54 -124zM784 469z" />
<glyph unicode="&#xc4;" d="M10 0h453v27h-17q-84 0 -120.5 50t-36.5 128q0 72 33 149l81 185h478l24 -62q94 -242 94 -325q0 -125 -165 -125h-25v-27h655v27h-24q-150 0 -236 221l-448 1138h-6l-488 -1079q-82 -178 -141 -235q-47 -45 -94 -45h-17v-27zM422 580l237 522l205 -522h-442zM526 1735 q0 -37 24.5 -61.5t61.5 -24.5t62.5 24.5t25.5 61.5t-25.5 62.5t-62.5 25.5t-61.5 -25.5t-24.5 -62.5zM784 469zM784 469zM870 1735q0 -37 24.5 -61.5t61.5 -24.5t62.5 24.5t25.5 61.5t-25.5 62.5t-62.5 25.5t-61.5 -25.5t-24.5 -62.5z" />
<glyph unicode="&#xc5;" d="M10 0h453v27h-17q-84 0 -120.5 50t-36.5 128q0 72 33 149l81 185h478l24 -62q94 -242 94 -325q0 -125 -165 -125h-25v-27h655v27h-24q-150 0 -236 221l-448 1138h-6l-488 -1079q-82 -178 -141 -235q-47 -45 -94 -45h-17v-27zM422 580l237 522l205 -522h-442zM590 1589 q0 -63 44 -107.5t105 -44.5q63 0 107.5 44.5t44.5 107.5q0 61 -44 105.5t-108 44.5q-61 0 -105 -44.5t-44 -105.5zM645 1589q0 39 27.5 66.5t68.5 27.5t67.5 -26.5t26.5 -67.5q0 -39 -27.5 -67.5t-66.5 -28.5q-41 0 -68.5 28.5t-27.5 67.5zM784 469z" />
<glyph unicode="&#xc6;" horiz-adv-x="1949" d="M10 0h453v27h-17q-143 0 -143 133q0 31 82 194l166 308h348v-390q0 -121 -60.5 -183t-154.5 -62h-22v-27h1206l14 401h-22q-39 -377 -430 -376q-166 0 -245 60t-79 187v394h113q106 0 168.5 -64.5t62.5 -173.5v-22h23q0 20 -3.5 130.5t-3.5 172.5q0 102 7 239h-23v-22 q0 -225 -213 -226h-131v658h231q385 0 408 -297h29l-23 323h-1018v-26h25q63 0 104 -31l-551 -1020q-70 -129 -135 -204.5t-143 -75.5h-23v-27zM573 702l326 607v-607h-326z" />
<glyph unicode="&#xc7;" horiz-adv-x="1368" d="M88 692q0 -342 195.5 -532.5t531.5 -190.5l-129 -123v-22q66 4 99.5 -24.5t33.5 -78.5q0 -57 -44 -95t-105 -38l4 -26q113 0 196.5 61.5t83.5 151.5q0 61 -47 93t-127 23q109 78 189 97q150 37 257 136t107 271h-26q0 -156 -126 -263t-337 -107q-229 0 -373.5 189 t-144.5 478t140 493t345 204q184 0 301 -96.5t178 -340.5h19l-11 430h-22q-4 -18 -19.5 -36.5t-35.5 -18.5q-6 0 -148.5 44t-286.5 44q-295 0 -496.5 -217t-201.5 -506z" />
<glyph unicode="&#xc8;" horiz-adv-x="1351" d="M72 0h1231l14 401h-23q-39 -377 -446 -376q-172 0 -252 60t-80 187v449h113q106 0 168.5 -65.5t62.5 -176.5v-22h23v542h-23v-22q0 -229 -213 -229h-131v610h244q385 0 407 -297h29l-22 323h-1090v-26h25q201 0 200 -234l2 -852q0 -121 -61.5 -183t-155.5 -62h-22v-27z M489 1747q0 -41 49 -72l328 -192h76l-322 313q-27 27 -57 27q-33 0 -53.5 -21.5t-20.5 -54.5zM774 469zM774 469z" />
<glyph unicode="&#xc9;" horiz-adv-x="1351" d="M72 0h1231l14 401h-23q-39 -377 -446 -376q-172 0 -252 60t-80 187v449h113q106 0 168.5 -65.5t62.5 -176.5v-22h23v542h-23v-22q0 -229 -213 -229h-131v610h244q385 0 407 -297h29l-22 323h-1090v-26h25q201 0 200 -234l2 -852q0 -121 -61.5 -183t-155.5 -62h-22v-27z M611 1483h76l327 192q49 31 49 72q0 33 -20.5 54.5t-52.5 21.5q-31 0 -58 -27zM774 469zM775 469z" />
<glyph unicode="&#xca;" horiz-adv-x="1351" d="M72 0h1231l14 401h-23q-39 -377 -446 -376q-172 0 -252 60t-80 187v449h113q106 0 168.5 -65.5t62.5 -176.5v-22h23v542h-23v-22q0 -229 -213 -229h-131v610h244q385 0 407 -297h29l-22 323h-1090v-26h25q201 0 200 -234l2 -852q0 -121 -61.5 -183t-155.5 -62h-22v-27z M494 1483h82l198 188l199 -188h82l-234 334h-94zM774 469zM774 469z" />
<glyph unicode="&#xcb;" horiz-adv-x="1351" d="M72 0h1231l14 401h-23q-39 -377 -446 -376q-172 0 -252 60t-80 187v449h113q106 0 168.5 -65.5t62.5 -176.5v-22h23v542h-23v-22q0 -229 -213 -229h-131v610h244q385 0 407 -297h29l-22 323h-1090v-26h25q201 0 200 -234l2 -852q0 -121 -61.5 -183t-155.5 -62h-22v-27z M516 1735q0 -37 24.5 -61.5t61.5 -24.5t62.5 24.5t25.5 61.5t-25.5 62.5t-62.5 25.5t-61.5 -25.5t-24.5 -62.5zM774 469zM774 469zM860 1735q0 -37 24.5 -61.5t61.5 -24.5t62.5 24.5t25.5 61.5t-25.5 62.5t-62.5 25.5t-61.5 -25.5t-24.5 -62.5z" />
<glyph unicode="&#xcc;" horiz-adv-x="827" d="M72 0h686v27h-23q-94 0 -155.5 62.5t-61.5 182.5v852q0 233 201 234h24v26h-657v-26h25q201 0 200 -234v-852q0 -121 -61.5 -183t-155.5 -62h-22v-27zM129 1747q0 -41 49 -72l328 -192h76l-322 313q-27 27 -57 27q-33 0 -53.5 -21.5t-20.5 -54.5zM414 469zM414 469z" />
<glyph unicode="&#xcd;" horiz-adv-x="827" d="M72 0h686v27h-23q-94 0 -155.5 62.5t-61.5 182.5v852q0 233 201 234h24v26h-657v-26h25q201 0 200 -234v-852q0 -121 -61.5 -183t-155.5 -62h-22v-27zM250 1483h76l327 192q49 31 49 72q0 33 -20.5 54.5t-52.5 21.5q-31 0 -58 -27zM414 469zM414 469z" />
<glyph unicode="&#xce;" horiz-adv-x="827" d="M72 0h686v27h-23q-94 0 -155.5 62.5t-61.5 182.5v852q0 233 201 234h24v26h-657v-26h25q201 0 200 -234v-852q0 -121 -61.5 -183t-155.5 -62h-22v-27zM133 1483h82l198 188l199 -188h82l-234 334h-94zM413 469zM414 469z" />
<glyph unicode="&#xcf;" horiz-adv-x="827" d="M72 0h686v27h-23q-94 0 -155.5 62.5t-61.5 182.5v852q0 233 201 234h24v26h-657v-26h25q201 0 200 -234v-852q0 -121 -61.5 -183t-155.5 -62h-22v-27zM155 1735q0 -37 24.5 -61.5t61.5 -24.5t62.5 24.5t25.5 61.5t-25.5 62.5t-62.5 25.5t-61.5 -25.5t-24.5 -62.5z M413 469zM414 469zM499 1735q0 -37 24.5 -61.5t61.5 -24.5t62.5 24.5t25.5 61.5t-25.5 62.5t-62.5 25.5t-61.5 -25.5t-24.5 -62.5z" />
<glyph unicode="&#xd0;" horiz-adv-x="1605" d="M72 0h737q197 0 340 59.5t220 162t112 219t35 251.5q0 96 -21.5 187.5t-76 185.5t-138.5 162.5t-221 112.5t-311 44h-662v-26h25q201 0 200 -234v-397h-213v-51h213v-404q0 -121 -61.5 -183t-155.5 -62h-22v-27zM518 272v402l381 2v55l-381 -2v617h170q125 0 229.5 -45.5 t171 -115t111.5 -158.5t64.5 -173t19.5 -162q0 -258 -157.5 -461.5t-409.5 -203.5q-53 0 -81 5t-59.5 27.5t-45 74.5t-13.5 138z" />
<glyph unicode="&#xd1;" horiz-adv-x="1607" d="M61 0h488v27h-23q-92 0 -146 62.5t-54 182.5v953l989 -1237h24v921q0 260 41 354.5t146 94.5h16v26h-452v-26h16q104 0 141 -92t37 -357v-571l-840 1046h-376v-26h24q197 0 197 -228v-858q0 -121 -56.5 -183t-148.5 -62h-23v-27zM498 1653h41q2 8 8 20.5t30.5 32 t57.5 19.5q53 0 146.5 -41t154.5 -41q70 0 121 54t51 120l-31 4q0 -31 -31.5 -53.5t-95.5 -22.5q-37 0 -131 40t-153.5 40t-113.5 -48t-54 -124z" />
<glyph unicode="&#xd2;" horiz-adv-x="1646" d="M90 692q0 -295 216 -509t517 -214t517 214t216 509t-216 509t-517 214t-517 -214t-216 -509zM338 692q0 289 140 490.5t345 201.5q207 0 348.5 -201.5t141.5 -490.5q0 -287 -141.5 -488.5t-348.5 -201.5q-205 0 -345 201.5t-140 488.5zM555 1745q0 -41 49 -72l328 -192 h76l-322 313q-27 27 -57 27q-33 0 -53.5 -21.5t-20.5 -54.5zM840 467z" />
<glyph unicode="&#xd3;" horiz-adv-x="1646" d="M90 692q0 -295 216 -509t517 -214t517 214t216 509t-216 509t-517 214t-517 -214t-216 -509zM338 692q0 289 140 490.5t345 201.5q207 0 348.5 -201.5t141.5 -490.5q0 -287 -141.5 -488.5t-348.5 -201.5q-205 0 -345 201.5t-140 488.5zM637 1536h76l327 192q49 31 49 72 q0 33 -20.5 54.5t-52.5 21.5q-31 0 -58 -27zM801 522z" />
<glyph unicode="&#xd4;" horiz-adv-x="1646" d="M90 692q0 -295 216 -509t517 -214t517 214t216 509t-216 509t-517 214t-517 -214t-216 -509zM338 692q0 289 140 490.5t345 201.5q207 0 348.5 -201.5t141.5 -490.5q0 -287 -141.5 -488.5t-348.5 -201.5q-205 0 -345 201.5t-140 488.5zM543 1483h82l198 188l199 -188h82 l-234 334h-94zM823 469z" />
<glyph unicode="&#xd5;" horiz-adv-x="1642" d="M88 692q0 -295 216 -509t517 -214t517 214t216 509t-216 509t-517 214t-517 -214t-216 -509zM336 692q0 289 140 490.5t345 201.5q207 0 348.5 -201.5t141.5 -490.5q0 -287 -141.5 -488.5t-348.5 -201.5q-205 0 -345 201.5t-140 488.5zM516 1669h41q2 8 8 20.5t30.5 32 t57.5 19.5q53 0 146.5 -41t154.5 -41q70 0 121 54t51 120l-31 4q0 -31 -31.5 -53.5t-95.5 -22.5q-37 0 -131 40t-153.5 40t-113.5 -48t-54 -124z" />
<glyph unicode="&#xd6;" horiz-adv-x="1646" d="M90 692q0 -295 216 -509t517 -214t517 214t216 509t-216 509t-517 214t-517 -214t-216 -509zM338 692q0 289 140 490.5t345 201.5q207 0 348.5 -201.5t141.5 -490.5q0 -287 -141.5 -488.5t-348.5 -201.5q-205 0 -345 201.5t-140 488.5zM565 1735q0 -37 24.5 -61.5 t61.5 -24.5t62.5 24.5t25.5 61.5t-25.5 62.5t-62.5 25.5t-61.5 -25.5t-24.5 -62.5zM823 469zM909 1735q0 -37 24.5 -61.5t61.5 -24.5t62.5 24.5t25.5 61.5t-25.5 62.5t-62.5 25.5t-61.5 -25.5t-24.5 -62.5z" />
<glyph unicode="&#xd7;" horiz-adv-x="974" d="M154 168l49 -49l280 280l281 -280l49 49l-281 281l281 280l-47 49l-283 -280l-282 280l-47 -49l280 -280z" />
<glyph unicode="&#xd8;" horiz-adv-x="1642" d="M88 692q0 -295 216 -509t517 -214t517 214t216 509t-216 509t-517 214t-517 -214t-216 -509zM283 -51l53 -43l1024 1519l-57 43zM336 692q0 289 140 490.5t345 201.5q207 0 348.5 -201.5t141.5 -490.5q0 -287 -141.5 -488.5t-348.5 -201.5q-205 0 -345 201.5t-140 488.5z " />
<glyph unicode="&#xd9;" horiz-adv-x="1619" d="M72 1358h24q201 0 201 -234v-757q0 -227 132 -314.5t433 -87.5q258 0 379 108.5t121 342.5v493q0 260 41 354.5t145 94.5h17v26h-453v-26h16q104 0 140.5 -91t38.5 -358l2 -446q0 -217 -89.5 -328.5t-306.5 -111.5q-412 0 -411 393v708q0 233 200 234h25v26h-655v-26z M606 1747q0 -41 49 -72l328 -192h76l-322 313q-27 27 -57 27q-33 0 -53.5 -21.5t-20.5 -54.5zM891 469zM891 469z" />
<glyph unicode="&#xda;" horiz-adv-x="1619" d="M72 1358h24q201 0 201 -234v-757q0 -227 132 -314.5t433 -87.5q258 0 379 108.5t121 342.5v493q0 260 41 354.5t145 94.5h17v26h-453v-26h16q104 0 140.5 -91t38.5 -358l2 -446q0 -217 -89.5 -328.5t-306.5 -111.5q-412 0 -411 393v708q0 233 200 234h25v26h-655v-26z M727 1483h76l327 192q49 31 49 72q0 33 -20.5 54.5t-52.5 21.5q-31 0 -58 -27zM891 469zM891 469z" />
<glyph unicode="&#xdb;" horiz-adv-x="1619" d="M72 1358h24q201 0 201 -234v-757q0 -227 132 -314.5t433 -87.5q258 0 379 108.5t121 342.5v493q0 260 41 354.5t145 94.5h17v26h-453v-26h16q104 0 140.5 -91t38.5 -358l2 -446q0 -217 -89.5 -328.5t-306.5 -111.5q-412 0 -411 393v708q0 233 200 234h25v26h-655v-26z M611 1483h82l198 188l199 -188h82l-234 334h-94zM891 469zM891 469z" />
<glyph unicode="&#xdc;" horiz-adv-x="1619" d="M72 1358h24q201 0 201 -234v-757q0 -227 132 -314.5t433 -87.5q258 0 379 108.5t121 342.5v493q0 260 41 354.5t145 94.5h17v26h-453v-26h16q104 0 140.5 -91t38.5 -358l2 -446q0 -217 -89.5 -328.5t-306.5 -111.5q-412 0 -411 393v708q0 233 200 234h25v26h-655v-26z M633 1735q0 -37 24.5 -61.5t61.5 -24.5t62.5 24.5t25.5 61.5t-25.5 62.5t-62.5 25.5t-61.5 -25.5t-24.5 -62.5zM891 469zM891 469zM977 1735q0 -37 24.5 -61.5t61.5 -24.5t62.5 24.5t25.5 61.5t-25.5 62.5t-62.5 25.5t-61.5 -25.5t-24.5 -62.5z" />
<glyph unicode="&#xdd;" horiz-adv-x="1402" d="M-10 1358h25q49 0 91 -20.5t79 -63.5t55 -71.5t51 -84.5l232 -391q45 -78 62 -131t17 -137v-187q0 -121 -60 -183t-155 -62h-22v-27h684v27h-23q-92 0 -153.5 63.5t-61.5 181.5v187q0 82 17.5 137t60.5 129l182 309q72 123 160 223.5t166 100.5h16v26h-452v-26h16 q129 0 129 -109q0 -82 -106 -266l-160 -276l-45 -70q-18 31 -35 59l-203 346q-92 156 -92 218q0 98 156 98h24v26h-655v-26zM475 1536h76l327 192q49 31 49 72q0 33 -20.5 54.5t-52.5 21.5q-31 0 -58 -27zM639 522z" />
<glyph unicode="&#xde;" horiz-adv-x="1284" d="M72 0h684v27h-23q-92 0 -153.5 63.5t-61.5 181.5v97q131 -8 170 -9q104 0 181 13.5t146.5 50.5t106.5 110.5t37 182.5q-4 164 -97 261t-278 97h-264q-2 166 50.5 224.5t148.5 58.5h24v26h-655v-26h25q199 0 198 -234v-852q0 -121 -61.5 -183t-155.5 -62h-22v-27zM518 391 v658q90 0 141.5 -4.5t115 -21.5t95 -51t54 -96.5t22.5 -154.5q0 -104 -29.5 -174t-86 -102.5t-114 -44t-134.5 -11.5q-10 0 -32 1t-32 1z" />
<glyph unicode="&#xdf;" horiz-adv-x="1024" d="M63 0h3h2h2h2h2h2h2h2h2h2h2h2h2h2h2h2h2h2h2h2h2h3h2h2h2h2h2h2h2h2h2h2h2h2h2h2h2h2h4h2h3h2h2h4h2h2h2h4h2h2h2h4h2h2h4h2h2h5h2h4h2h2h4h2h4h2h4h2h2h4h2h5h2h4h4h2h4h2h4h2h4h4h2h4h2h5h4h2h4h4h2h4h4h2h4h4h4h3h4h4h4h2h4h4h4h2h4h4h4h5h4h4h2h4h4h4h4h4h4h5h16v27 q-45 0 -64.5 53t-19.5 192v852q0 86 20.5 144.5t53 81t55 29.5t45.5 7q215 0 215 -235q0 -158 -42 -226.5t-130 -68.5q-25 0 -49.5 12.5t-40.5 12.5q-57 0 -57 -45q0 -41 47 -41q18 0 44.5 13t43.5 13q59 -2 102 -17.5t86 -53t65.5 -116.5t22.5 -194q0 -180 -45 -304 t-117 -124q-29 0 -47 14.5t-24 31t-18.5 30.5t-32.5 14q-47 0 -48 -43q0 -72 168 -71q125 0 221.5 112.5t96.5 339.5q0 178 -110.5 286t-252.5 112q100 10 177 98t77 215q0 113 -98 188.5t-254 75.5q-145 0 -227 -89t-82 -202v-262h-121v-41h121v-549q0 -147 -23.5 -196 t-116.5 -49v-27z" />
<glyph unicode="&#xe0;" horiz-adv-x="903" d="M66 195q0 -33 10 -65t36 -68.5t80 -59t132 -22.5q170 0 235 102q57 -98 193 -98q61 0 99 17t48.5 32.5t20.5 44.5l-16 8q-12 -20 -20.5 -30.5t-28 -19.5t-48.5 -9q-55 0 -70.5 43t-15.5 137v436q0 133 -86 186.5t-237 53.5q-98 0 -192.5 -42t-94.5 -112q0 -35 21.5 -57.5 t54.5 -22.5q63 0 75 76q12 74 44 99.5t88 25.5q51 0 86.5 -14.5t53 -34t28 -57t11.5 -63.5t1 -75q0 -59 -52.5 -105t-125.5 -59q-330 -57 -330 -247zM137 1278q0 -41 49 -72l328 -192h76l-322 313q-27 27 -57 27q-33 0 -53.5 -21.5t-20.5 -54.5zM226 186q0 59 38.5 108.5 t85 75t120 59.5t104.5 54v-186q0 -135 -43 -210t-160 -75q-63 0 -97 29t-41 61.5t-7 83.5zM422 0zM422 0z" />
<glyph unicode="&#xe1;" horiz-adv-x="903" d="M66 195q0 -33 10 -65t36 -68.5t80 -59t132 -22.5q170 0 235 102q57 -98 193 -98q61 0 99 17t48.5 32.5t20.5 44.5l-16 8q-12 -20 -20.5 -30.5t-28 -19.5t-48.5 -9q-55 0 -70.5 43t-15.5 137v436q0 133 -86 186.5t-237 53.5q-98 0 -192.5 -42t-94.5 -112q0 -35 21.5 -57.5 t54.5 -22.5q63 0 75 76q12 74 44 99.5t88 25.5q51 0 86.5 -14.5t53 -34t28 -57t11.5 -63.5t1 -75q0 -59 -52.5 -105t-125.5 -59q-330 -57 -330 -247zM226 186q0 59 38.5 108.5t85 75t120 59.5t104.5 54v-186q0 -135 -43 -210t-160 -75q-63 0 -97 29t-41 61.5t-7 83.5z M258 1014h76l327 192q49 31 49 72q0 33 -20.5 54.5t-52.5 21.5q-31 0 -58 -27zM422 0zM422 0z" />
<glyph unicode="&#xe2;" horiz-adv-x="903" d="M66 195q0 -33 10 -65t36 -68.5t80 -59t132 -22.5q170 0 235 102q57 -98 193 -98q61 0 99 17t48.5 32.5t20.5 44.5l-16 8q-12 -20 -20.5 -30.5t-28 -19.5t-48.5 -9q-55 0 -70.5 43t-15.5 137v436q0 133 -86 186.5t-237 53.5q-98 0 -192.5 -42t-94.5 -112q0 -35 21.5 -57.5 t54.5 -22.5q63 0 75 76q12 74 44 99.5t88 25.5q51 0 86.5 -14.5t53 -34t28 -57t11.5 -63.5t1 -75q0 -59 -52.5 -105t-125.5 -59q-330 -57 -330 -247zM142 1014h82l198 188l199 -188h82l-234 334h-94zM226 186q0 59 38.5 108.5t85 75t120 59.5t104.5 54v-186q0 -135 -43 -210 t-160 -75q-63 0 -97 29t-41 61.5t-7 83.5zM422 0zM422 0z" />
<glyph unicode="&#xe3;" horiz-adv-x="915" d="M80 195q0 -33 10 -65t36 -68.5t80 -59t132 -22.5q170 0 235 102q57 -98 193 -98q61 0 99 17t48.5 32.5t20.5 44.5l-16 8q-12 -20 -20.5 -30.5t-28 -19.5t-48.5 -9q-55 0 -70.5 43t-15.5 137v436q0 133 -86 186.5t-237 53.5q-98 0 -192.5 -42t-94.5 -112q0 -35 21.5 -57.5 t54.5 -22.5q63 0 75 76q12 74 44 99.5t88 25.5q51 0 86.5 -14.5t53 -34t28 -57t11.5 -63.5t1 -75q0 -59 -52.5 -105t-125.5 -59q-330 -57 -330 -247zM152 1151h41q2 8 8 20.5t30.5 32t57.5 19.5q53 0 146.5 -41t154.5 -41q70 0 121 54t51 120l-31 4q0 -31 -31.5 -53.5 t-95.5 -22.5q-37 0 -131 40t-153.5 40t-113.5 -48t-54 -124zM240 186q0 59 38.5 108.5t85 75t120 59.5t104.5 54v-186q0 -135 -43 -210t-160 -75q-63 0 -97 29t-41 61.5t-7 83.5zM436 0z" />
<glyph unicode="&#xe4;" horiz-adv-x="903" d="M66 195q0 -33 10 -65t36 -68.5t80 -59t132 -22.5q170 0 235 102q57 -98 193 -98q61 0 99 17t48.5 32.5t20.5 44.5l-16 8q-12 -20 -20.5 -30.5t-28 -19.5t-48.5 -9q-55 0 -70.5 43t-15.5 137v436q0 133 -86 186.5t-237 53.5q-98 0 -192.5 -42t-94.5 -112q0 -35 21.5 -57.5 t54.5 -22.5q63 0 75 76q12 74 44 99.5t88 25.5q51 0 86.5 -14.5t53 -34t28 -57t11.5 -63.5t1 -75q0 -59 -52.5 -105t-125.5 -59q-330 -57 -330 -247zM164 1266q0 -37 24.5 -61.5t61.5 -24.5t62.5 24.5t25.5 61.5t-25.5 62.5t-62.5 25.5t-61.5 -25.5t-24.5 -62.5zM226 186 q0 59 38.5 108.5t85 75t120 59.5t104.5 54v-186q0 -135 -43 -210t-160 -75q-63 0 -97 29t-41 61.5t-7 83.5zM422 0zM422 0zM508 1266q0 -37 24.5 -61.5t61.5 -24.5t62.5 24.5t25.5 61.5t-25.5 62.5t-62.5 25.5t-61.5 -25.5t-24.5 -62.5z" />
<glyph unicode="&#xe5;" horiz-adv-x="915" d="M80 195q0 -33 10 -65t36 -68.5t80 -59t132 -22.5q170 0 235 102q57 -98 193 -98q61 0 99 17t48.5 32.5t20.5 44.5l-16 8q-12 -20 -20.5 -30.5t-28 -19.5t-48.5 -9q-55 0 -70.5 43t-15.5 137v436q0 133 -86 186.5t-237 53.5q-98 0 -192.5 -42t-94.5 -112q0 -35 21.5 -57.5 t54.5 -22.5q63 0 75 76q12 74 44 99.5t88 25.5q51 0 86.5 -14.5t53 -34t28 -57t11.5 -63.5t1 -75q0 -59 -52.5 -105t-125.5 -59q-330 -57 -330 -247zM240 186q0 59 38.5 108.5t85 75t120 59.5t104.5 54v-186q0 -135 -43 -210t-160 -75q-63 0 -97 29t-41 61.5t-7 83.5z M287 1194q0 -63 44 -107.5t105 -44.5q63 0 107.5 44.5t44.5 107.5q0 61 -44 105.5t-108 44.5q-61 0 -105 -44.5t-44 -105.5zM342 1194q0 39 27.5 66.5t68.5 27.5t67.5 -26.5t26.5 -67.5q0 -39 -27.5 -67.5t-66.5 -28.5q-41 0 -68.5 28.5t-27.5 67.5zM436 0z" />
<glyph unicode="&#xe6;" horiz-adv-x="1359" d="M59 213q0 -88 56.5 -160.5t201.5 -72.5q209 0 279 165q55 -70 149.5 -122t212.5 -52q145 0 237.5 65.5t115.5 168.5h-23q-76 -178 -282 -178q-174 0 -243 103t-69 298q0 76 4 123h605q0 172 -112 255t-253 83q-172 0 -260 -96q-78 90 -287 90q-98 0 -192.5 -42 t-94.5 -112q0 -35 21.5 -57.5t54.5 -22.5q68 0 80 76q12 74 42 99.5t85 25.5q49 0 82 -12.5t50.5 -29.5t25.5 -52t10 -62.5t2 -77.5q0 -61 -49 -107t-119 -56q-172 -23 -251 -79.5t-79 -160.5zM219 186q0 84 48 130t143.5 94.5t146.5 95.5v-209q0 -139 -38.5 -212 t-153.5 -73q-63 0 -97.5 29t-41.5 61.5t-7 83.5zM702 584q18 127 70.5 199.5t165.5 72.5q115 0 162 -69.5t47 -202.5h-445z" />
<glyph unicode="&#xe7;" horiz-adv-x="854" d="M72 430q0 -205 114.5 -332t321.5 -127l-129 -125v-22q66 4 99.5 -24.5t33.5 -78.5q0 -57 -44 -95t-106 -38l5 -26q113 0 196.5 61.5t83.5 151.5q0 61 -47 93t-127 23q100 78 168 93q180 39 203 221h-23q-23 -88 -76 -133t-178 -45q-332 0 -331 403q0 182 71.5 304 t194.5 122q84 0 110.5 -24.5t42.5 -106.5q14 -70 86 -70q33 0 53.5 20.5t20.5 55.5q0 78 -101.5 118t-211.5 40q-188 0 -309 -134.5t-121 -324.5z" />
<glyph unicode="&#xe8;" horiz-adv-x="915" d="M61 430q0 -207 116 -333t333 -126q156 0 244 64.5t110 169.5h-22q-37 -88 -99.5 -133t-185.5 -45q-332 0 -332 401q0 84 6 154h621q0 152 -118 229.5t-251 77.5q-186 0 -304 -134t-118 -325zM194 1278q0 -41 49 -72l328 -192h76l-322 313q-27 27 -57 27 q-33 0 -53.5 -21.5t-20.5 -54.5zM236 614q16 117 73 179.5t174 62.5q111 0 162 -59.5t51 -182.5h-460zM479 0zM479 0z" />
<glyph unicode="&#xe9;" horiz-adv-x="915" d="M61 430q0 -207 116 -333t333 -126q156 0 244 64.5t110 169.5h-22q-37 -88 -99.5 -133t-185.5 -45q-332 0 -332 401q0 84 6 154h621q0 152 -118 229.5t-251 77.5q-186 0 -304 -134t-118 -325zM236 614q16 117 73 179.5t174 62.5q111 0 162 -59.5t51 -182.5h-460zM316 1014 h76l327 192q49 31 49 72q0 33 -20.5 54.5t-52.5 21.5q-31 0 -58 -27zM479 0zM480 0z" />
<glyph unicode="&#xea;" horiz-adv-x="915" d="M61 430q0 -207 116 -333t333 -126q156 0 244 64.5t110 169.5h-22q-37 -88 -99.5 -133t-185.5 -45q-332 0 -332 401q0 84 6 154h621q0 152 -118 229.5t-251 77.5q-186 0 -304 -134t-118 -325zM199 1014h82l198 188l199 -188h82l-234 334h-94zM236 614q16 117 73 179.5 t174 62.5q111 0 162 -59.5t51 -182.5h-460zM479 0zM479 0z" />
<glyph unicode="&#xeb;" horiz-adv-x="915" d="M61 430q0 -207 116 -333t333 -126q156 0 244 64.5t110 169.5h-22q-37 -88 -99.5 -133t-185.5 -45q-332 0 -332 401q0 84 6 154h621q0 152 -118 229.5t-251 77.5q-186 0 -304 -134t-118 -325zM221 1266q0 -37 24.5 -61.5t61.5 -24.5t62.5 24.5t25.5 61.5t-25.5 62.5 t-62.5 25.5t-61.5 -25.5t-24.5 -62.5zM236 614q16 117 73 179.5t174 62.5q111 0 162 -59.5t51 -182.5h-460zM479 0zM479 0zM565 1266q0 -37 24.5 -61.5t61.5 -24.5t62.5 24.5t25.5 61.5t-25.5 62.5t-62.5 25.5t-61.5 -25.5t-24.5 -62.5z" />
<glyph unicode="&#xec;" horiz-adv-x="520" d="M-37 1278q0 -41 49 -72l328 -192h76l-322 313q-27 27 -57 27q-33 0 -53.5 -21.5t-20.5 -54.5zM53 836q100 -2 124 -36t24 -163v-365q0 -150 -21.5 -197.5t-113.5 -47.5v-27h403v27q-92 0 -112.5 45t-20.5 200v623h-21q-211 -35 -262 -39v-20zM248 0zM250 0z" />
<glyph unicode="&#xed;" horiz-adv-x="520" d="M27 1014h76l327 192q49 31 49 72q0 33 -20.5 54.5t-52.5 21.5q-31 0 -58 -27zM53 836q100 -2 124 -36t24 -163v-365q0 -150 -21.5 -197.5t-113.5 -47.5v-27h403v27q-92 0 -112.5 45t-20.5 200v623h-21q-211 -35 -262 -39v-20zM191 0zM250 0z" />
<glyph unicode="&#xee;" horiz-adv-x="520" d="M-32 1014h82l198 188l199 -188h82l-234 334h-94zM53 836q100 -2 124 -36t24 -163v-365q0 -150 -21.5 -197.5t-113.5 -47.5v-27h403v27q-92 0 -112.5 45t-20.5 200v623h-21q-211 -35 -262 -39v-20zM248 0zM250 0z" />
<glyph unicode="&#xef;" horiz-adv-x="520" d="M-17 1266q0 -37 24.5 -61.5t61.5 -24.5t62.5 24.5t25.5 61.5t-25.5 62.5t-62.5 25.5t-61.5 -25.5t-24.5 -62.5zM53 836q100 -2 124 -36t24 -163v-365q0 -150 -21.5 -197.5t-113.5 -47.5v-27h403v27q-92 0 -112.5 45t-20.5 200v623h-21q-211 -35 -262 -39v-20zM241 0z M250 0zM327 1266q0 -37 24.5 -61.5t61.5 -24.5t62.5 24.5t25.5 61.5t-25.5 62.5t-62.5 25.5t-61.5 -25.5t-24.5 -62.5z" />
<glyph unicode="&#xf0;" horiz-adv-x="1034" d="M72 430q0 -186 137 -322.5t328 -136.5q178 0 297.5 137.5t119.5 360.5q0 137 -25.5 264t-84 243t-143.5 201t-211.5 135t-280.5 50q127 -8 233.5 -73.5t168 -153.5t95 -168t33.5 -131q-96 53 -202 53q-190 0 -327.5 -136.5t-137.5 -322.5zM236 430q0 176 88 301t213 125 q123 0 191.5 -121t68.5 -305q0 -174 -79 -300t-181 -126q-125 0 -213 125t-88 301zM358 1032l33 -47l508 297l-25 53z" />
<glyph unicode="&#xf1;" horiz-adv-x="1136" d="M72 836q106 -4 127.5 -37t21.5 -170v-357q0 -147 -23.5 -196t-115.5 -49v-27h410v27q-92 0 -114 46t-22 199v254q0 158 35 211q33 49 89.5 84t121.5 35q203 0 203 -233v-351q0 -147 -23.5 -196t-115.5 -49v-27h409v27q-92 0 -113.5 46t-21.5 199v351q0 164 -68.5 215 t-203.5 51q-209 0 -312 -135l-10 135l-14 6q-133 -25 -260 -39v-20zM262 1151h41q2 8 8 20.5t30.5 32t57.5 19.5q53 0 146.5 -41t154.5 -41q70 0 121 54t51 120l-31 4q0 -31 -31.5 -53.5t-95.5 -22.5q-37 0 -131 40t-153.5 40t-113.5 -48t-54 -124z" />
<glyph unicode="&#xf2;" horiz-adv-x="1073" d="M72 430q0 -186 137 -322.5t327.5 -136.5t327.5 136.5t137 322.5t-137 322.5t-327.5 136.5t-327.5 -136.5t-137 -322.5zM236 430q0 176 88 301t213 125q127 0 214 -124t87 -302t-87 -302t-214 -124q-125 0 -213 125t-88 301zM252 1278q0 -41 49 -72l328 -192h76l-322 313 q-27 27 -57 27q-33 0 -53.5 -21.5t-20.5 -54.5zM537 0zM537 0z" />
<glyph unicode="&#xf3;" horiz-adv-x="1073" d="M72 430q0 -186 137 -322.5t327.5 -136.5t327.5 136.5t137 322.5t-137 322.5t-327.5 136.5t-327.5 -136.5t-137 -322.5zM236 430q0 176 88 301t213 125q127 0 214 -124t87 -302t-87 -302t-214 -124q-125 0 -213 125t-88 301zM373 1014h76l327 192q49 31 49 72 q0 33 -20.5 54.5t-52.5 21.5q-31 0 -58 -27zM537 0zM537 0z" />
<glyph unicode="&#xf4;" horiz-adv-x="1073" d="M72 430q0 -186 137 -322.5t327.5 -136.5t327.5 136.5t137 322.5t-137 322.5t-327.5 136.5t-327.5 -136.5t-137 -322.5zM236 430q0 176 88 301t213 125q127 0 214 -124t87 -302t-87 -302t-214 -124q-125 0 -213 125t-88 301zM256 1014h82l198 188l199 -188h82l-234 334 h-94zM536 0zM537 0z" />
<glyph unicode="&#xf5;" horiz-adv-x="1073" d="M72 430q0 -186 137 -322.5t327.5 -136.5t327.5 136.5t137 322.5t-137 322.5t-327.5 136.5t-327.5 -136.5t-137 -322.5zM232 1151h41q2 8 8 20.5t30.5 32t57.5 19.5q53 0 146.5 -41t154.5 -41q70 0 121 54t51 120l-31 4q0 -31 -31.5 -53.5t-95.5 -22.5q-37 0 -131 40 t-153.5 40t-113.5 -48t-54 -124zM236 430q0 176 88 301t213 125q127 0 214 -124t87 -302t-87 -302t-214 -124q-125 0 -213 125t-88 301zM537 0z" />
<glyph unicode="&#xf6;" horiz-adv-x="1073" d="M72 430q0 -186 137 -322.5t327.5 -136.5t327.5 136.5t137 322.5t-137 322.5t-327.5 136.5t-327.5 -136.5t-137 -322.5zM236 430q0 176 88 301t213 125q127 0 214 -124t87 -302t-87 -302t-214 -124q-125 0 -213 125t-88 301zM278 1266q0 -37 24.5 -61.5t61.5 -24.5 t62.5 24.5t25.5 61.5t-25.5 62.5t-62.5 25.5t-61.5 -25.5t-24.5 -62.5zM536 0zM537 0zM622 1266q0 -37 24.5 -61.5t61.5 -24.5t62.5 24.5t25.5 61.5t-25.5 62.5t-62.5 25.5t-61.5 -25.5t-24.5 -62.5z" />
<glyph unicode="&#xf7;" horiz-adv-x="1089" d="M100 543h791v84h-791v-84zM463 322q0 37 23.5 59t58.5 22t59.5 -23.5t24.5 -57.5q0 -39 -22.5 -61.5t-61.5 -22.5q-33 0 -57.5 24.5t-24.5 59.5zM463 973q0 37 23.5 60.5t58.5 23.5t59.5 -23.5t24.5 -60.5q0 -39 -22.5 -60.5t-61.5 -21.5q-33 0 -57.5 23.5t-24.5 58.5z " />
<glyph unicode="&#xf8;" horiz-adv-x="1073" d="M72 430q0 -186 137 -322.5t327.5 -136.5t327.5 136.5t137 322.5t-137 322.5t-327.5 136.5t-327.5 -136.5t-137 -322.5zM184 -47l39 -29l668 1000l-43 28zM236 430q0 176 88 301t213 125q127 0 214 -124t87 -302t-87 -302t-214 -124q-125 0 -213 125t-88 301zM537 0z" />
<glyph unicode="&#xf9;" horiz-adv-x="1128" d="M61 836q96 0 121 -47.5t25 -198.5v-346q0 -90 24.5 -148.5t73.5 -83t94 -33t115 -8.5q197 0 276 115l9 -106l14 -7q133 10 260 25v20q-104 4 -125.5 35t-21.5 170v639h-269v-26q92 0 112.5 -45.5t20.5 -200.5v-273q0 -176 -34 -221q-72 -92 -224 -92q-86 0 -138 58.5 t-52 181.5v618h-281v-26zM287 1278q0 -41 49 -72l328 -192h76l-322 313q-27 27 -57 27q-33 0 -53.5 -21.5t-20.5 -54.5zM571 0zM572 0z" />
<glyph unicode="&#xfa;" horiz-adv-x="1128" d="M61 836q96 0 121 -47.5t25 -198.5v-346q0 -90 24.5 -148.5t73.5 -83t94 -33t115 -8.5q197 0 276 115l9 -106l14 -7q133 10 260 25v20q-104 4 -125.5 35t-21.5 170v639h-269v-26q92 0 112.5 -45.5t20.5 -200.5v-273q0 -176 -34 -221q-72 -92 -224 -92q-86 0 -138 58.5 t-52 181.5v618h-281v-26zM408 1014h76l327 192q49 31 49 72q0 33 -20.5 54.5t-52.5 21.5q-31 0 -58 -27zM571 0zM572 0z" />
<glyph unicode="&#xfb;" horiz-adv-x="1128" d="M61 836q96 0 121 -47.5t25 -198.5v-346q0 -90 24.5 -148.5t73.5 -83t94 -33t115 -8.5q197 0 276 115l9 -106l14 -7q133 10 260 25v20q-104 4 -125.5 35t-21.5 170v639h-269v-26q92 0 112.5 -45.5t20.5 -200.5v-273q0 -176 -34 -221q-72 -92 -224 -92q-86 0 -138 58.5 t-52 181.5v618h-281v-26zM291 1014h82l198 188l199 -188h82l-234 334h-94zM571 0zM571 0z" />
<glyph unicode="&#xfc;" horiz-adv-x="1128" d="M61 836q96 0 121 -47.5t25 -198.5v-346q0 -90 24.5 -148.5t73.5 -83t94 -33t115 -8.5q197 0 276 115l9 -106l14 -7q133 10 260 25v20q-104 4 -125.5 35t-21.5 170v639h-269v-26q92 0 112.5 -45.5t20.5 -200.5v-273q0 -176 -34 -221q-72 -92 -224 -92q-86 0 -138 58.5 t-52 181.5v618h-281v-26zM313 1266q0 -37 24.5 -61.5t61.5 -24.5t62.5 24.5t25.5 61.5t-25.5 62.5t-62.5 25.5t-61.5 -25.5t-24.5 -62.5zM571 0zM571 0zM657 1266q0 -37 24.5 -61.5t61.5 -24.5t62.5 24.5t25.5 61.5t-25.5 62.5t-62.5 25.5t-61.5 -25.5t-24.5 -62.5z" />
<glyph unicode="&#xfd;" horiz-adv-x="976" d="M0 846h16q35 0 59.5 -10.5t43 -34t27.5 -41t24 -53.5l293 -705q0 -88 -54 -199q-16 -37 -55 -67.5t-78 -30.5q-14 0 -37.5 8t-44.5 8q-72 0 -71 -57q0 -27 25.5 -50.5t68.5 -23.5q135 0 229 228l309 741q121 287 211 287h11v16h-314v-16h11q45 0 74.5 -31t29.5 -82 q0 -41 -53 -174l-168 -407l-174 411q-57 139 -58 191q0 39 35 65.5t82 26.5h14v16h-456v-16zM387 1014h76l327 192q49 31 49 72q0 33 -20.5 54.5t-52.5 21.5q-31 0 -58 -27zM551 0zM551 0z" />
<glyph unicode="&#xfe;" horiz-adv-x="1062" d="M27 -391v-27h428v27q-92 0 -114 77.5t-22 344.5q92 -59 234 -60q211 0 324.5 131t113.5 328q0 188 -125 323.5t-313 135.5q-59 0 -117.5 -20.5t-84 -38t-36.5 -27.5v612h-18q-215 -35 -266 -39v-20q104 -2 126.5 -40t22.5 -186v-1224q0 -80 -4 -125t-18.5 -89t-46 -63.5 t-84.5 -19.5zM311 430q0 231 40 328.5t175 97.5q147 0 224 -120t77 -306q0 -178 -75.5 -302t-225.5 -124q-61 0 -102 19.5t-63.5 48t-34 91t-13.5 115t-2 152.5z" />
<glyph unicode="&#xff;" horiz-adv-x="976" d="M0 846h16q35 0 59.5 -10.5t43 -34t27.5 -41t24 -53.5l293 -705q0 -88 -54 -199q-16 -37 -55 -67.5t-78 -30.5q-14 0 -37.5 8t-44.5 8q-72 0 -71 -57q0 -27 25.5 -50.5t68.5 -23.5q135 0 229 228l309 741q121 287 211 287h11v16h-314v-16h11q45 0 74.5 -31t29.5 -82 q0 -41 -53 -174l-168 -407l-174 411q-57 139 -58 191q0 39 35 65.5t82 26.5h14v16h-456v-16zM293 1266q0 -37 24.5 -61.5t61.5 -24.5t62.5 24.5t25.5 61.5t-25.5 62.5t-62.5 25.5t-61.5 -25.5t-24.5 -62.5zM551 0zM551 0zM637 1266q0 -37 24.5 -61.5t61.5 -24.5t62.5 24.5 t25.5 61.5t-25.5 62.5t-62.5 25.5t-61.5 -25.5t-24.5 -62.5z" />
<glyph unicode="&#x152;" horiz-adv-x="2244" d="M49 715q0 -334 197.5 -529.5t478.5 -195.5q104 0 239.5 6t276.5 8h907l27 367h-21q-25 -174 -117.5 -260t-318.5 -86q-158 0 -239.5 71.5t-81.5 188.5v420h184q92 0 144.5 -62.5t52.5 -163.5v-20h18v516h-18v-23q0 -217 -162 -217l-219 -6v623h340q150 0 225.5 -67.5 t105.5 -197.5h19l-25 297h-841q-106 0 -252 4.5t-256 4.5q-274 0 -469 -179.5t-195 -498.5zM283 715q0 274 130.5 460.5t323.5 186.5q100 0 186.5 -32t159 -102.5t114.5 -199.5t42 -307q0 -354 -137 -525t-352 -171q-197 0 -332 201.5t-135 488.5z" />
<glyph unicode="&#x153;" horiz-adv-x="1630" d="M51 430q0 -186 137.5 -322.5t327.5 -136.5q102 0 198.5 48.5t153.5 125.5q41 -68 137.5 -121t219.5 -53q145 0 237 65.5t115 168.5h-23q-76 -178 -282 -178q-174 0 -244 103t-70 298q0 51 7 123h604q0 172 -111.5 255t-253.5 83q-227 0 -338 -162q-135 162 -350 162 q-190 0 -327.5 -136.5t-137.5 -322.5zM211 430q0 176 89 301t216 125t214 -124t87 -302t-87 -302t-214 -124t-216 125t-89 301zM969 584q18 127 70 199.5t165 72.5q115 0 162 -69.5t47 -202.5h-444z" />
<glyph unicode="&#x178;" horiz-adv-x="1331" d="M-37 1358h25q49 0 91 -20.5t79 -63.5t55 -71.5t51 -84.5l232 -391q45 -78 62 -131t17 -137v-187q0 -121 -60 -183t-155 -62h-22v-27h684v27h-23q-92 0 -153.5 63.5t-61.5 181.5v187q0 82 17.5 137t60.5 129l182 309q72 123 160 223.5t166 100.5h16v26h-452v-26h16 q129 0 129 -109q0 -82 -106 -266l-160 -276l-45 -70q-18 31 -35 59l-203 346q-92 156 -92 218q0 98 156 98h24v26h-655v-26zM428 1788q0 -37 24.5 -61.5t61.5 -24.5t62.5 24.5t25.5 61.5t-25.5 62.5t-62.5 25.5t-61.5 -25.5t-24.5 -62.5zM686 522zM772 1788 q0 -37 24.5 -61.5t61.5 -24.5t62.5 24.5t25.5 61.5t-25.5 62.5t-62.5 25.5t-61.5 -25.5t-24.5 -62.5z" />
<glyph unicode="&#x2c6;" horiz-adv-x="706" d="M72 1014h82l198 188l199 -188h82l-234 334h-94zM352 0z" />
<glyph unicode="&#x2dc;" horiz-adv-x="698" d="M37 1151h41q2 8 8 20.5t30.5 32t57.5 19.5q53 0 146.5 -41t154.5 -41q70 0 121 54t51 120l-31 4q0 -31 -31.5 -53.5t-95.5 -22.5q-37 0 -131 40t-153.5 40t-113.5 -48t-54 -124z" />
<glyph unicode="&#x2000;" horiz-adv-x="938" />
<glyph unicode="&#x2001;" horiz-adv-x="1876" />
<glyph unicode="&#x2002;" horiz-adv-x="938" />
<glyph unicode="&#x2003;" horiz-adv-x="1876" />
<glyph unicode="&#x2004;" horiz-adv-x="625" />
<glyph unicode="&#x2005;" horiz-adv-x="469" />
<glyph unicode="&#x2006;" horiz-adv-x="312" />
<glyph unicode="&#x2007;" horiz-adv-x="312" />
<glyph unicode="&#x2008;" horiz-adv-x="234" />
<glyph unicode="&#x2009;" horiz-adv-x="375" />
<glyph unicode="&#x200a;" horiz-adv-x="104" />
<glyph unicode="&#x2010;" horiz-adv-x="690" d="M98 395l447 -6l12 100l-459 -6v-88z" />
<glyph unicode="&#x2011;" horiz-adv-x="690" d="M98 395l447 -6l12 100l-459 -6v-88z" />
<glyph unicode="&#x2012;" horiz-adv-x="690" d="M98 395l447 -6l12 100l-459 -6v-88z" />
<glyph unicode="&#x2013;" horiz-adv-x="921" d="M0 397h922v86h-922v-86z" />
<glyph unicode="&#x2014;" horiz-adv-x="1843" d="M0 397h1843v86h-1843v-86z" />
<glyph unicode="&#x2018;" horiz-adv-x="460" d="M81 1086q0 -80 41 -123t103 -43q51 0 84 33.5t33 80.5q0 45 -32 73t-79 28q-53 0 -72 -29q0 94 59.5 172t133.5 119l-12 26q-102 -35 -180.5 -135t-78.5 -202z" />
<glyph unicode="&#x2019;" horiz-adv-x="460" d="M108 944l12 -26q102 35 180.5 135t78.5 202q0 80 -41 123t-103 43q-51 0 -84 -33.5t-33 -80.5q0 -45 32 -73t79 -28q53 0 72 29q0 -94 -59.5 -172t-133.5 -119z" />
<glyph unicode="&#x201c;" horiz-adv-x="833" d="M91 1086q0 -80 40.5 -123t102.5 -43q51 0 84 33.5t33 80.5q0 45 -32 73t-79 28q-53 0 -72 -29q0 94 59.5 172t133.5 119l-12 26q-102 -35 -180 -135t-78 -202zM414 1086q0 -80 41 -123t102 -43q51 0 84 33.5t33 80.5q0 45 -31.5 73t-78.5 28q-53 0 -72 -29q0 94 59.5 172 t132.5 119l-12 26q-102 -35 -180 -135t-78 -202z" />
<glyph unicode="&#x201d;" horiz-adv-x="784" d="M109 944l12 -26q102 35 180 135t78 202q0 80 -41 123t-102 43q-51 0 -84 -33.5t-33 -80.5q0 -45 31.5 -73t78.5 -28q53 0 72 29q0 -94 -59.5 -172t-132.5 -119zM432 944l12 -26q102 35 180 135t78 202q0 80 -40.5 123t-102.5 43q-51 0 -84 -33.5t-33 -80.5q0 -45 32 -73 t79 -28q53 0 72 29q0 -94 -59.5 -172t-133.5 -119z" />
<glyph unicode="&#x2022;" horiz-adv-x="600" d="M126 454.5q0 -76.5 51.5 -129t128 -52.5t129 52.5t52.5 129t-52.5 129.5t-129 53t-128 -53t-51.5 -129.5z" />
<glyph unicode="&#x202f;" horiz-adv-x="375" />
<glyph unicode="&#x205f;" horiz-adv-x="469" />
<glyph unicode="&#x20ac;" horiz-adv-x="1439" d="M80 631h147l4 43h-151v-43zM84 780h154l6 43h-160v-43zM190 713q0 -350 170 -547t492 -197q80 0 161 23.5t154.5 71t119.5 133.5t46 198h-26q0 -156 -114 -261t-308 -105q-225 0 -341 178t-116 475q0 295 118 501t306 206q178 0 276.5 -93.5t161.5 -343.5h19l-11 430h-22 q-4 -18 -19.5 -36.5t-35.5 -18.5q-18 0 -67.5 22.5t-134.5 44t-192 21.5q-274 0 -455.5 -208t-181.5 -494zM397 674l2 -43h557v43h-559zM412 780h583v43h-579z" />
<glyph unicode="&#x25fc;" horiz-adv-x="860" d="M0 0v860h860v-860h-860z" />
<glyph unicode="&#xfb01;" horiz-adv-x="1095" d="M61 821h162v-549q0 -147 -23.5 -196t-115.5 -49v-27h410v27q-92 0 -114 46t-22 199v549h267q86 0 110.5 -31.5t24.5 -158.5v-359q0 -150 -21.5 -197.5t-113.5 -47.5v-27h405v27q-92 0 -113.5 46t-21.5 199v623h-18q-98 -33 -185 -33h-334l2 262q0 150 74 215.5t158 65.5 q57 0 88 -18.5t63 -86.5q39 -80 97 -79q45 0 57 51t-20 80q-74 70 -285 69q-88 0 -155.5 -15t-105.5 -45t-61.5 -57.5t-33 -68.5t-11.5 -60.5t-2 -50.5v-262h-162v-41z" />
<glyph unicode="&#xfb02;" horiz-adv-x="1107" d="M61 821h162v-549q0 -147 -23.5 -196t-115.5 -49v-27h410v27q-92 0 -114 46t-22 199v549h250v41h-250l2 262q0 152 66 216.5t147 64.5q53 0 71 -15.5t52 -86.5q35 -74 80 -82v-949q0 -147 -23.5 -196t-115.5 -49v-27h410v27q-92 0 -114 46t-22 199l2 1143h-20 q-37 -35 -68 -63q-74 70 -252 69q-88 0 -154.5 -23.5t-102 -57t-58 -77.5t-29 -77t-6.5 -62v-262h-162v-41z" />
<glyph unicode="&#xfb03;" horiz-adv-x="1642" d="M61 821h162v-549q0 -147 -23.5 -196t-115.5 -49v-27h410v27q-92 0 -114 46t-22 199v549h412v-549q0 -147 -23.5 -196t-115.5 -49v-27h409v27q-92 0 -113.5 46t-21.5 199v549h266q86 0 111 -31.5t25 -158.5v-359q0 -150 -21.5 -197.5t-114.5 -47.5v-27h406v27 q-92 0 -113.5 46t-21.5 199v623h-19q-98 -33 -184 -33h-334l2 262q0 150 74 215.5t158 65.5q57 0 87.5 -18.5t63.5 -86.5q39 -80 96 -79q45 0 57.5 51t-20.5 80q-74 70 -284.5 69.5t-302.5 -96.5q-16 53 -93 74.5t-153 21.5q-106 0 -184 -34.5t-114 -86t-52.5 -95.5 t-16.5 -81v-262h-162v-41zM358 862v262q0 78 21.5 134.5t48.5 83t64.5 43t57 18.5t40.5 2q23 0 36 -4t34.5 -25.5t41.5 -66.5q2 -2 8.5 -16.5t7.5 -17.5t8 -15.5t10 -12.5t12.5 -9t15.5 -5t18 0q-12 -43 -12 -109v-262h-412z" />
<glyph unicode="&#xfb04;" horiz-adv-x="1654" d="M61 821h162v-549q0 -147 -23.5 -196t-115.5 -49v-27h410v27q-92 0 -114 46t-22 199v549h412v-549q0 -147 -23.5 -196t-115.5 -49v-27h409v27q-92 0 -113.5 46t-21.5 199v549h262v41h-262v262q0 152 66.5 216.5t148.5 64.5q53 0 70.5 -15.5t52.5 -86.5q35 -74 80 -82v-949 q0 -147 -23.5 -196t-115.5 -49v-27h409v27q-92 0 -113.5 46t-21.5 199l2 1143h-20q-37 -35 -68 -63q-74 70 -252 69q-197 0 -284 -98q-14 53 -91 75.5t-155 22.5q-106 0 -184 -34.5t-114 -86t-52.5 -95.5t-16.5 -81v-262h-162v-41zM358 862v262q0 78 21.5 134.5t48.5 83 t64.5 43t57 18.5t40.5 2q23 0 36 -4t34.5 -25.5t41.5 -66.5q14 -31 20.5 -42.5t24 -24.5t41.5 -7q-18 -57 -18 -111v-262h-412z" />
</font>
</defs>
</svg>
